<?xml version="1.0" encoding="UTF-8"?>
<!-- Generator: visioncortex VTracer 0.6.3 -->
<svg version="1.1" xmlns="http://www.w3.org/2000/svg" width="1280" height="1280">
<path d="M0 0 C0.86 -0 1.72 -0.01 2.6 -0.01 C3.54 -0.01 4.48 -0 5.44 -0 C6.43 -0 7.42 -0.01 8.44 -0.01 C11.73 -0.01 15.01 -0.01 18.29 -0.01 C20.56 -0.01 22.84 -0.01 25.11 -0.01 C29.88 -0.01 34.66 -0.01 39.43 -0 C45.55 0 51.68 -0 57.8 -0.01 C62.5 -0.01 67.2 -0.01 71.9 -0.01 C74.16 -0.01 76.41 -0.01 78.67 -0.01 C81.82 -0.01 84.98 -0.01 88.13 -0 C89.54 -0.01 89.54 -0.01 90.97 -0.01 C91.83 -0.01 92.69 -0 93.57 0 C94.32 0 95.07 0 95.83 0 C97.79 0.13 97.79 0.13 100.79 1.13 C103.54 1.31 106.28 1.45 109.04 1.56 C119.99 2.09 130.68 3.41 141.42 5.7 C143.94 6.15 146.42 6.38 148.97 6.56 C156.19 7.13 165.3 7.88 171.79 11.13 C173.02 11.23 174.26 11.33 175.54 11.44 C181.06 11.98 186.18 13.63 191.48 15.21 C194.12 15.94 196.52 16.47 199.22 16.75 C203.74 17.23 207.86 18.31 212.04 20.08 C215.34 21.34 218.66 22.13 222.1 22.94 C232.49 25.46 242.78 28.46 252.74 32.38 C255.53 33.4 258.38 34.22 261.22 35.06 C265.85 36.47 270.18 38.08 274.56 40.13 C277.03 41.24 279.54 42.16 282.1 43.06 C291.35 46.37 300.17 50.26 308.92 54.72 C311.53 56 314.13 57.09 316.85 58.13 C321.6 59.95 325.93 62.32 330.34 64.86 C332.53 65.99 334.38 66.66 336.79 67.13 C336.79 67.79 336.79 68.45 336.79 69.13 C337.43 69.2 338.08 69.26 338.74 69.33 C343.06 70.46 346.62 72.61 350.47 74.81 C351.27 75.26 352.07 75.72 352.9 76.18 C357.97 79.05 362.99 81.99 367.94 85.07 C369.91 86.28 369.91 86.28 372.79 87.13 C372.79 87.79 372.79 88.45 372.79 89.13 C375.26 89.62 375.26 89.62 377.79 90.13 C377.79 90.79 377.79 91.45 377.79 92.13 C378.36 92.24 378.94 92.36 379.53 92.47 C382 93.19 383.75 94.19 385.91 95.57 C386.7 96.07 387.48 96.56 388.29 97.08 C389.11 97.61 389.94 98.14 390.79 98.69 C391.64 99.23 392.49 99.78 393.36 100.34 C399.89 104.52 406.38 108.76 412.79 113.13 C413.76 113.78 414.73 114.43 415.74 115.1 C416.66 115.73 417.58 116.36 418.54 117 C419.77 117.83 419.77 117.83 421.02 118.68 C421.6 119.16 422.19 119.64 422.79 120.13 C422.79 120.79 422.79 121.45 422.79 122.13 C423.68 122.31 423.68 122.31 424.6 122.5 C426.79 123.13 426.79 123.13 429.79 125.13 C429.79 125.79 429.79 126.45 429.79 127.13 C430.78 127.44 430.78 127.44 431.79 127.75 C435.86 129.62 439.48 132.1 442.79 135.13 C442.79 135.79 442.79 136.45 442.79 137.13 C443.53 137.4 444.27 137.66 445.04 137.94 C447.68 139.08 449.64 140.22 451.79 142.13 C451.79 142.79 451.79 143.45 451.79 144.13 C452.41 144.44 453.02 144.75 453.66 145.06 C455.04 145.75 456.41 146.44 457.79 147.13 C457.79 147.79 457.79 148.45 457.79 149.13 C458.33 149.35 458.88 149.58 459.44 149.81 C462.52 151.54 464.83 153.77 467.41 156.19 C470.83 159.54 470.83 159.54 474.79 162.13 C474.79 162.79 474.79 163.45 474.79 164.13 C475.38 164.4 475.97 164.67 476.58 164.95 C478.75 166.11 480.26 167.29 482.04 168.97 C482.66 169.55 483.28 170.13 483.92 170.72 C484.57 171.35 485.23 171.98 485.91 172.63 C486.6 173.28 487.29 173.93 487.99 174.6 C493.65 179.98 499.24 185.44 504.79 190.94 C505.98 192.11 505.98 192.11 507.2 193.31 C507.93 194.04 508.66 194.77 509.41 195.52 C510.06 196.17 510.72 196.82 511.39 197.49 C512.79 199.13 512.79 199.13 512.79 201.13 C513.45 201.13 514.11 201.13 514.79 201.13 C516.48 202.77 516.48 202.77 518.35 204.94 C518.97 205.65 519.59 206.35 520.23 207.08 C521.79 209.13 521.79 209.13 522.79 212.13 C523.45 212.13 524.11 212.13 524.79 212.13 C526.3 213.83 527.75 215.59 529.16 217.38 C531.38 220.18 533.52 222.86 536.08 225.36 C537.79 227.13 537.79 227.13 537.79 229.13 C538.45 229.13 539.11 229.13 539.79 229.13 C542.79 232.59 542.79 232.59 542.79 235.13 C543.45 235.13 544.11 235.13 544.79 235.13 C546.08 236.72 547.3 238.38 548.47 240.06 C551.69 244.62 555.03 249.02 558.54 253.35 C559.79 255.13 559.79 255.13 559.79 257.13 C560.45 257.13 561.11 257.13 561.79 257.13 C564.08 259.69 564.79 260.61 564.79 264.13 C565.45 264.13 566.11 264.13 566.79 264.13 C568.29 266.03 568.29 266.03 569.91 268.5 C570.45 269.31 570.99 270.13 571.54 270.96 C572.79 273.13 572.79 273.13 572.79 275.13 C573.45 275.13 574.11 275.13 574.79 275.13 C576.13 276.94 576.13 276.94 577.72 279.56 C578.65 281.06 578.65 281.06 579.59 282.59 C579.94 283.15 580.28 283.71 580.64 284.29 C582.82 287.79 585.1 291.23 587.35 294.69 C590.82 300.03 594.23 305.39 597.46 310.88 C598.38 312.44 599.32 313.99 600.27 315.53 C603.61 320.97 606.54 326.51 609.29 332.27 C610.74 335.18 610.74 335.18 612.69 337.91 C615.28 341.88 617.19 346.02 619.16 350.31 C621.66 355.7 624.19 361.01 627.1 366.19 C629.34 370.18 631.1 374.19 632.72 378.47 C633.96 381.56 635.36 384.55 636.79 387.56 C639.09 392.49 641.07 397.42 642.87 402.54 C643.72 404.94 644.64 407.28 645.6 409.63 C650.27 421.21 654.68 432.87 657.87 444.95 C658.57 447.37 659.34 449.63 660.24 451.97 C661.87 456.23 663.1 460.54 664.29 464.94 C664.5 465.73 664.72 466.51 664.94 467.33 C665.36 468.89 665.79 470.45 666.21 472.01 C666.7 473.82 667.2 475.62 667.71 477.42 C669.03 482.18 670.23 486.92 671.25 491.75 C671.88 494.56 672.62 497.34 673.35 500.13 C674.45 504.48 675.15 508.66 675.54 513.12 C675.92 516.22 676.91 519.13 677.79 522.13 C679.18 528.57 679.99 534.95 680.51 541.51 C680.77 543.94 681.21 546.2 681.79 548.56 C682.92 553.19 683.24 557.78 683.54 562.53 C683.7 565.24 683.7 565.24 684.79 568.13 C684.92 569.58 685.01 571.04 685.07 572.51 C685.12 573.76 685.12 573.76 685.18 575.05 C685.25 576.81 685.32 578.58 685.39 580.34 C685.43 581.18 685.47 582.02 685.51 582.88 C685.54 583.65 685.57 584.41 685.6 585.2 C685.68 587.21 685.68 587.21 686.79 589.13 C686.88 590.49 686.91 591.86 686.91 593.23 C686.92 594.51 686.92 594.51 686.92 595.83 C686.92 596.77 686.92 597.71 686.92 598.69 C686.92 599.68 686.92 600.67 686.92 601.69 C686.93 604.98 686.92 608.27 686.92 611.56 C686.92 613.84 686.92 616.12 686.92 618.4 C686.92 623.18 686.92 627.97 686.92 632.75 C686.91 638.89 686.92 645.03 686.92 651.17 C686.92 655.88 686.92 660.58 686.92 665.29 C686.92 667.56 686.92 669.82 686.92 672.09 C686.93 675.25 686.92 678.41 686.92 681.57 C686.92 682.98 686.92 682.98 686.92 684.43 C686.92 685.29 686.92 686.14 686.91 687.03 C686.91 687.78 686.91 688.52 686.91 689.29 C686.79 691.13 686.79 691.13 685.79 693.13 C685.65 694.54 685.56 695.96 685.51 697.37 C685.47 698.21 685.43 699.05 685.39 699.91 C685.36 700.79 685.32 701.66 685.29 702.56 C685.22 704.29 685.15 706.02 685.07 707.75 C685.02 708.9 685.02 708.9 684.98 710.07 C684.79 712.13 684.79 712.13 683.79 715.13 C683.59 716.5 683.43 717.87 683.29 719.25 C683.16 720.44 683.16 720.44 683.04 721.64 C682.95 722.46 682.87 723.28 682.79 724.13 C682.62 725.75 682.46 727.38 682.29 729 C682.21 729.72 682.14 730.44 682.07 731.18 C681.79 733.13 681.79 733.13 680.79 736.13 C680.63 737.69 680.51 739.25 680.41 740.81 C679.99 745.84 679.22 750.74 678.29 755.69 C678.09 756.74 678.09 756.74 677.89 757.82 C676.92 762.86 676.92 762.86 675.79 765.13 C675.68 766.36 675.58 767.6 675.47 768.88 C674.93 774.29 673.37 779.28 671.82 784.48 C670.86 787.85 670.1 791.19 669.41 794.63 C668.1 800.98 666.49 807.24 664.79 813.5 C664.54 814.43 664.29 815.36 664.03 816.31 C662.91 820.41 661.72 824.44 660.21 828.41 C658.96 831.68 657.99 834.87 657.1 838.25 C653.36 851.6 648.4 864.69 642.93 877.41 C641.65 880.45 640.5 883.53 639.35 886.63 C637.29 892.05 634.84 897.15 632.18 902.31 C630.94 904.82 629.9 907.31 628.91 909.94 C626.98 914.95 624.48 919.6 621.92 924.31 C619.57 928.64 617.34 933.01 615.16 937.44 C612.73 942.35 610.12 947.05 607.24 951.71 C605.71 954.25 604.31 956.83 602.91 959.44 C598.09 968.37 592.7 976.98 586.92 985.32 C585.62 987.24 585.62 987.24 584.79 990.13 C584.13 990.13 583.47 990.13 582.79 990.13 C582.69 990.67 582.6 991.21 582.5 991.77 C581.58 994.82 580.06 997.18 578.35 999.88 C577.42 1001.35 577.42 1001.35 576.48 1002.86 C575.64 1003.98 575.64 1003.98 574.79 1005.13 C574.13 1005.13 573.47 1005.13 572.79 1005.13 C572.42 1006.18 572.42 1006.18 572.04 1007.25 C570.62 1010.52 568.91 1013.27 566.79 1016.13 C566.13 1016.13 565.47 1016.13 564.79 1016.13 C564.32 1017.3 564.32 1017.3 563.85 1018.5 C562.79 1021.13 562.79 1021.13 561.79 1023.13 C561.13 1023.13 560.47 1023.13 559.79 1023.13 C559.43 1024.2 559.43 1024.2 559.06 1025.29 C557.59 1028.56 555.74 1030.84 553.41 1033.56 C550.88 1036.57 548.43 1039.49 546.35 1042.81 C545.58 1043.96 545.58 1043.96 544.79 1045.13 C544.13 1045.13 543.47 1045.13 542.79 1045.13 C542.48 1045.75 542.17 1046.36 541.85 1047 C541.16 1048.38 540.47 1049.75 539.79 1051.13 C539.13 1051.13 538.47 1051.13 537.79 1051.13 C537.56 1051.67 537.34 1052.21 537.1 1052.78 C535.37 1055.86 533.14 1058.17 530.72 1060.75 C527.37 1064.17 527.37 1064.17 524.79 1068.13 C524.13 1068.13 523.47 1068.13 522.79 1068.13 C522.52 1068.72 522.26 1069.31 521.99 1069.92 C520.74 1072.21 519.48 1073.6 517.6 1075.38 C515.12 1077.72 512.86 1080.18 510.64 1082.76 C506.42 1087.62 501.91 1092.15 497.35 1096.69 C496.14 1097.91 496.14 1097.91 494.9 1099.15 C490.56 1103.48 486.16 1107.66 481.49 1111.63 C479.75 1113.11 479.75 1113.11 478.19 1114.82 C476.79 1116.13 476.79 1116.13 474.79 1116.13 C474.79 1116.79 474.79 1117.45 474.79 1118.13 C473.09 1119.64 471.33 1121.09 469.54 1122.5 C466.73 1124.72 464.05 1126.86 461.55 1129.42 C459.79 1131.13 459.79 1131.13 457.79 1131.13 C457.79 1131.79 457.79 1132.45 457.79 1133.13 C454.33 1136.13 454.33 1136.13 451.79 1136.13 C451.79 1136.79 451.79 1137.45 451.79 1138.13 C450.19 1139.42 448.53 1140.64 446.85 1141.81 C442.3 1145.03 437.9 1148.37 433.56 1151.88 C431.79 1153.13 431.79 1153.13 429.79 1153.13 C429.79 1153.79 429.79 1154.45 429.79 1155.13 C425.4 1158.13 425.4 1158.13 422.79 1158.13 C422.79 1158.79 422.79 1159.45 422.79 1160.13 C420.89 1161.63 420.89 1161.63 418.41 1163.25 C417.6 1163.79 416.79 1164.33 415.95 1164.88 C413.79 1166.13 413.79 1166.13 411.79 1166.13 C411.79 1166.79 411.79 1167.45 411.79 1168.13 C409.77 1169.61 409.77 1169.61 406.97 1171.31 C405.47 1172.25 405.47 1172.25 403.93 1173.2 C402.89 1173.83 401.86 1174.47 400.79 1175.13 C398.91 1176.31 397.03 1177.5 395.16 1178.69 C393.81 1179.54 393.81 1179.54 392.44 1180.42 C389.12 1182.56 385.89 1184.79 382.66 1187.06 C380.79 1188.13 380.79 1188.13 377.79 1188.13 C377.79 1188.79 377.79 1189.45 377.79 1190.13 C376.14 1190.46 374.49 1190.79 372.79 1191.13 C372.79 1191.79 372.79 1192.45 372.79 1193.13 C372.09 1193.46 371.4 1193.78 370.69 1194.12 C363.91 1197.42 357.45 1201.02 351.04 1204.97 C341 1211.13 341 1211.13 336.79 1211.13 C336.79 1211.79 336.79 1212.45 336.79 1213.13 C336.19 1213.35 335.6 1213.57 334.99 1213.79 C330.22 1215.61 325.74 1217.63 321.29 1220.13 C317.1 1222.47 312.93 1224.36 308.45 1226.06 C305.35 1227.3 302.36 1228.7 299.35 1230.13 C294.43 1232.43 289.49 1234.41 284.37 1236.21 C281.98 1237.06 279.64 1237.98 277.29 1238.94 C265.7 1243.61 254.05 1248.01 241.96 1251.21 C239.55 1251.91 237.29 1252.67 234.95 1253.58 C230.65 1255.22 226.29 1256.48 221.85 1257.69 C221.1 1257.9 220.36 1258.11 219.59 1258.32 C214.93 1259.6 210.27 1260.71 205.53 1261.68 C203.77 1261.97 203.77 1261.97 202.79 1263.13 C201.36 1263.46 199.92 1263.74 198.47 1264 C194.51 1264.76 190.63 1265.66 186.72 1266.69 C182.37 1267.81 178.19 1268.49 173.72 1268.88 C170.94 1269.23 168.44 1270.23 165.79 1271.13 C159.1 1272.64 152.45 1273.35 145.62 1273.85 C142.37 1274.17 139.32 1274.87 136.15 1275.65 C132.27 1276.43 128.34 1276.63 124.39 1276.88 C121.68 1277.04 121.68 1277.04 118.79 1278.13 C117.33 1278.26 115.87 1278.35 114.41 1278.41 C113.15 1278.46 113.15 1278.46 111.87 1278.52 C110.1 1278.59 108.34 1278.66 106.57 1278.73 C105.73 1278.77 104.9 1278.81 104.03 1278.85 C103.27 1278.88 102.5 1278.91 101.71 1278.94 C99.7 1279.02 99.7 1279.02 97.79 1280.13 C96.42 1280.22 95.05 1280.25 93.69 1280.25 C92.4 1280.26 92.4 1280.26 91.09 1280.26 C90.14 1280.26 89.2 1280.26 88.23 1280.26 C87.24 1280.26 86.24 1280.26 85.22 1280.26 C81.93 1280.27 78.64 1280.26 75.35 1280.26 C73.07 1280.26 70.79 1280.26 68.51 1280.26 C63.73 1280.26 58.95 1280.26 54.17 1280.26 C48.03 1280.25 41.89 1280.25 35.75 1280.26 C31.04 1280.26 26.33 1280.26 21.62 1280.26 C19.36 1280.26 17.09 1280.26 14.83 1280.26 C11.67 1280.27 8.51 1280.26 5.35 1280.26 C3.93 1280.26 3.93 1280.26 2.49 1280.26 C1.63 1280.26 0.77 1280.26 -0.11 1280.25 C-0.86 1280.25 -1.61 1280.25 -2.38 1280.25 C-4.21 1280.13 -4.21 1280.13 -6.21 1279.13 C-7.62 1278.99 -9.04 1278.9 -10.46 1278.85 C-11.3 1278.81 -12.13 1278.77 -13 1278.73 C-13.87 1278.7 -14.75 1278.66 -15.65 1278.63 C-17.38 1278.56 -19.11 1278.49 -20.83 1278.41 C-21.99 1278.36 -21.99 1278.36 -23.16 1278.32 C-25.21 1278.13 -25.21 1278.13 -28.21 1277.13 C-29.58 1276.93 -30.96 1276.77 -32.34 1276.63 C-33.52 1276.5 -33.52 1276.5 -34.73 1276.38 C-35.55 1276.29 -36.37 1276.21 -37.21 1276.13 C-38.84 1275.96 -40.46 1275.8 -42.09 1275.63 C-42.81 1275.55 -43.53 1275.48 -44.27 1275.41 C-46.21 1275.13 -46.21 1275.13 -49.21 1274.13 C-50.73 1274 -52.25 1273.9 -53.78 1273.81 C-59.86 1273.32 -65.66 1272.01 -71.58 1270.59 C-75.34 1269.7 -79 1269 -82.85 1268.62 C-86.69 1268.24 -90.15 1267.41 -93.84 1266.25 C-100.17 1264.36 -106.45 1263.02 -112.94 1261.84 C-115.91 1261.19 -118.41 1260.28 -121.21 1259.13 C-123.21 1258.6 -125.21 1258.1 -127.21 1257.63 C-131.05 1256.73 -134.56 1255.59 -138.21 1254.13 C-140.08 1253.64 -141.96 1253.18 -143.84 1252.75 C-148.67 1251.57 -153.26 1250.12 -157.9 1248.36 C-161.42 1247.05 -164.96 1245.82 -168.51 1244.6 C-175.91 1242.05 -183.23 1239.41 -190.43 1236.3 C-193.49 1235.01 -196.59 1233.85 -199.71 1232.69 C-205.14 1230.63 -210.24 1228.18 -215.39 1225.52 C-217.91 1224.28 -220.4 1223.24 -223.03 1222.25 C-228.03 1220.32 -232.69 1217.82 -237.39 1215.26 C-241.73 1212.91 -246.1 1210.68 -250.53 1208.5 C-255.41 1206.08 -260.07 1203.47 -264.7 1200.6 C-268.5 1198.37 -272.47 1196.5 -276.45 1194.62 C-279.34 1193.06 -281.66 1191.19 -284.21 1189.13 C-285.88 1188.17 -287.57 1187.25 -289.28 1186.38 C-294.48 1183.6 -299.33 1180.47 -304.2 1177.15 C-308.13 1174.51 -312.17 1172.04 -316.23 1169.57 C-316.88 1169.1 -317.54 1168.62 -318.21 1168.13 C-318.21 1167.47 -318.21 1166.81 -318.21 1166.13 C-319.05 1165.72 -319.05 1165.72 -319.9 1165.31 C-324.1 1163.16 -328.06 1160.62 -332.03 1158.06 C-332.82 1157.56 -333.61 1157.05 -334.42 1156.53 C-335.01 1156.07 -335.6 1155.6 -336.21 1155.13 C-336.21 1154.47 -336.21 1153.81 -336.21 1153.13 C-336.93 1152.88 -337.65 1152.63 -338.39 1152.38 C-341.54 1150.98 -343.71 1149.29 -346.34 1147.06 C-347.3 1146.26 -348.26 1145.46 -349.25 1144.63 C-350.72 1143.39 -350.72 1143.39 -352.21 1142.13 C-354.06 1140.6 -355.92 1139.08 -357.78 1137.56 C-358.67 1136.83 -359.56 1136.09 -360.49 1135.34 C-362.35 1133.83 -364.23 1132.33 -366.13 1130.85 C-367.5 1129.78 -367.5 1129.78 -368.9 1128.69 C-369.73 1128.05 -370.56 1127.41 -371.41 1126.76 C-372.3 1125.95 -372.3 1125.95 -373.21 1125.13 C-373.21 1124.47 -373.21 1123.81 -373.21 1123.13 C-373.79 1122.86 -374.37 1122.59 -374.96 1122.31 C-377.27 1121.1 -379.23 1119.82 -381.21 1118.13 C-381.21 1117.47 -381.21 1116.81 -381.21 1116.13 C-381.8 1115.87 -382.38 1115.61 -382.99 1115.35 C-385.41 1114.02 -386.94 1112.56 -388.84 1110.56 C-391.26 1107.99 -391.26 1107.99 -394.21 1106.13 C-394.21 1105.47 -394.21 1104.81 -394.21 1104.13 C-394.78 1103.89 -395.34 1103.65 -395.92 1103.41 C-398.74 1101.83 -400.67 1099.91 -402.95 1097.62 C-403.85 1096.71 -404.76 1095.81 -405.69 1094.88 C-406.15 1094.4 -406.62 1093.93 -407.1 1093.44 C-408.51 1092.02 -409.92 1090.61 -411.33 1089.2 C-415.97 1084.52 -420.5 1079.81 -424.76 1074.79 C-426.2 1073.09 -426.2 1073.09 -427.9 1071.53 C-429.21 1070.13 -429.21 1070.13 -429.21 1068.13 C-429.87 1068.13 -430.53 1068.13 -431.21 1068.13 C-432.73 1066.43 -434.18 1064.67 -435.59 1062.88 C-437.81 1060.07 -439.94 1057.39 -442.5 1054.89 C-444.21 1053.13 -444.21 1053.13 -444.21 1051.13 C-444.87 1051.13 -445.53 1051.13 -446.21 1051.13 C-449.21 1047.67 -449.21 1047.67 -449.21 1045.13 C-449.87 1045.13 -450.53 1045.13 -451.21 1045.13 C-452.51 1043.53 -453.72 1041.87 -454.9 1040.19 C-458.12 1035.64 -461.45 1031.24 -464.96 1026.9 C-466.21 1025.13 -466.21 1025.13 -466.21 1023.13 C-466.87 1023.13 -467.53 1023.13 -468.21 1023.13 C-471.21 1018.74 -471.21 1018.74 -471.21 1016.13 C-471.87 1016.13 -472.53 1016.13 -473.21 1016.13 C-474.72 1014.23 -474.72 1014.23 -476.34 1011.75 C-477.15 1010.53 -477.15 1010.53 -477.97 1009.29 C-479.21 1007.13 -479.21 1007.13 -479.21 1005.13 C-479.87 1005.13 -480.53 1005.13 -481.21 1005.13 C-482.69 1003.11 -482.69 1003.11 -484.4 1000.31 C-485.33 998.81 -485.33 998.81 -486.28 997.27 C-486.92 996.23 -487.56 995.2 -488.21 994.13 C-489.4 992.25 -490.58 990.37 -491.78 988.5 C-492.35 987.6 -492.92 986.7 -493.51 985.77 C-495.14 983.24 -496.79 980.74 -498.46 978.25 C-504.21 969.64 -504.21 969.64 -504.21 966.13 C-504.87 966.13 -505.53 966.13 -506.21 966.13 C-506.54 965.43 -506.87 964.74 -507.21 964.03 C-510.06 958.17 -513.09 952.59 -516.53 947.06 C-520.54 940.56 -523.84 933.84 -527.04 926.91 C-529.06 922.54 -531.16 918.27 -533.53 914.06 C-535.77 910.07 -537.52 906.06 -539.15 901.79 C-540.39 898.69 -541.79 895.7 -543.21 892.69 C-545.51 887.78 -547.49 882.85 -549.29 877.73 C-550.18 875.21 -551.15 872.73 -552.15 870.25 C-555.67 861.5 -559.12 852.91 -561.46 843.76 C-562.46 840.26 -563.81 836.95 -565.25 833.61 C-566.46 830.5 -567.33 827.35 -568.21 824.13 C-568.61 822.72 -569 821.3 -569.4 819.89 C-570.47 816.02 -571.55 812.14 -572.62 808.26 C-573.12 806.45 -573.63 804.64 -574.13 802.83 C-575.45 798.08 -576.65 793.33 -577.68 788.51 C-578.31 785.69 -579.05 782.92 -579.78 780.13 C-580.88 775.78 -581.57 771.6 -581.97 767.13 C-582.35 764.03 -583.32 761.12 -584.21 758.13 C-585.66 752.04 -586.44 746.06 -586.94 739.83 C-587.2 737.29 -587.62 734.87 -588.15 732.38 C-590.41 721.67 -591.43 710.94 -591.87 700.03 C-592.01 696.84 -592.2 694.17 -593.21 691.13 C-593.3 689.72 -593.34 688.32 -593.34 686.91 C-593.34 686.06 -593.35 685.2 -593.35 684.31 C-593.35 683.38 -593.34 682.44 -593.34 681.47 C-593.34 680.48 -593.35 679.49 -593.35 678.47 C-593.35 675.19 -593.35 671.91 -593.35 668.63 C-593.35 666.35 -593.35 664.08 -593.35 661.8 C-593.35 657.03 -593.35 652.26 -593.34 647.49 C-593.34 641.36 -593.34 635.24 -593.35 629.12 C-593.35 624.42 -593.35 619.72 -593.35 615.02 C-593.35 612.76 -593.35 610.5 -593.35 608.24 C-593.35 605.09 -593.35 601.94 -593.34 598.78 C-593.34 597.84 -593.35 596.91 -593.35 595.94 C-593.35 595.08 -593.34 594.22 -593.34 593.34 C-593.34 592.59 -593.34 591.85 -593.34 591.08 C-593.21 589.13 -593.21 589.13 -592.21 586.13 C-592.03 583.37 -591.89 580.63 -591.78 577.88 C-591.25 566.93 -589.94 556.24 -587.65 545.52 C-587.17 542.89 -586.93 540.29 -586.71 537.63 C-586.19 531.1 -585.02 524.84 -583.15 518.56 C-582.42 515.88 -582.05 513.78 -581.84 511.06 C-581.34 505.8 -579.77 500.95 -578.26 495.9 C-576.84 490.78 -575.87 485.63 -574.92 480.4 C-574.28 477.42 -573.36 474.94 -572.21 472.13 C-571.53 469.55 -570.89 466.97 -570.28 464.38 C-568.49 457.06 -566.33 450.04 -563.65 443 C-562.29 439.42 -561.24 435.82 -560.21 432.13 C-558.31 425.47 -556.42 419.11 -553.14 412.99 C-552.17 411.04 -551.5 409.14 -550.84 407.06 C-547.61 396.96 -543.44 387.31 -538.58 377.89 C-537.31 375.32 -536.23 372.75 -535.21 370.06 C-533.39 365.31 -531.02 360.98 -528.48 356.57 C-527.35 354.38 -526.68 352.53 -526.21 350.13 C-525.55 350.13 -524.89 350.13 -524.21 350.13 C-524.08 349.09 -524.08 349.09 -523.94 348.04 C-523.04 344.43 -521.43 341.76 -519.53 338.56 C-516.34 333.16 -513.43 327.7 -510.73 322.04 C-508.76 318.26 -506.51 314.71 -504.21 311.13 C-503.77 310.44 -503.33 309.75 -502.88 309.04 C-501.51 306.92 -500.15 304.8 -498.78 302.69 C-498.3 301.95 -497.82 301.21 -497.32 300.44 C-494.35 295.85 -491.34 291.29 -488.24 286.79 C-487.04 284.99 -487.04 284.99 -486.21 282.13 C-485.55 282.13 -484.89 282.13 -484.21 282.13 C-483.75 280.95 -483.75 280.95 -483.28 279.75 C-482.21 277.13 -482.21 277.13 -481.21 275.13 C-480.55 275.13 -479.89 275.13 -479.21 275.13 C-478.97 274.43 -478.72 273.72 -478.46 273 C-477.04 269.73 -475.34 266.99 -473.21 264.13 C-472.55 264.13 -471.89 264.13 -471.21 264.13 C-471.09 263.53 -470.97 262.93 -470.84 262.31 C-470.21 260.13 -470.21 260.13 -468.21 257.13 C-467.55 257.13 -466.89 257.13 -466.21 257.13 C-465.85 256.06 -465.85 256.06 -465.49 254.97 C-464.02 251.69 -462.16 249.41 -459.84 246.69 C-457.31 243.69 -454.86 240.77 -452.78 237.44 C-452.26 236.68 -451.74 235.91 -451.21 235.13 C-450.55 235.13 -449.89 235.13 -449.21 235.13 C-448.9 234.51 -448.59 233.89 -448.28 233.25 C-447.59 231.88 -446.9 230.5 -446.21 229.13 C-445.55 229.13 -444.89 229.13 -444.21 229.13 C-443.99 228.58 -443.76 228.04 -443.53 227.48 C-441.8 224.39 -439.57 222.08 -437.15 219.5 C-433.8 216.08 -433.8 216.08 -431.21 212.13 C-430.55 212.13 -429.89 212.13 -429.21 212.13 C-428.94 211.55 -428.68 210.97 -428.4 210.38 C-427.18 208.07 -425.91 206.11 -424.21 204.13 C-423.55 204.13 -422.89 204.13 -422.21 204.13 C-421.94 203.53 -421.67 202.94 -421.39 202.32 C-420.23 200.16 -419.08 198.74 -417.36 197.01 C-416.78 196.43 -416.21 195.85 -415.62 195.25 C-414.69 194.33 -414.69 194.33 -413.74 193.39 C-413.11 192.75 -412.47 192.12 -411.82 191.46 C-410.47 190.12 -409.13 188.77 -407.78 187.44 C-405.71 185.38 -403.66 183.31 -401.6 181.24 C-400.29 179.94 -398.99 178.63 -397.68 177.33 C-397.06 176.71 -396.45 176.09 -395.81 175.45 C-391.44 171.13 -391.44 171.13 -389.21 171.13 C-389.21 170.47 -389.21 169.81 -389.21 169.13 C-383.74 164.13 -383.74 164.13 -381.21 164.13 C-381.21 163.47 -381.21 162.81 -381.21 162.13 C-379.51 160.61 -377.75 159.16 -375.96 157.75 C-373.16 155.53 -370.48 153.4 -367.98 150.84 C-366.21 149.13 -366.21 149.13 -364.21 149.13 C-364.21 148.47 -364.21 147.81 -364.21 147.13 C-360.75 144.13 -360.75 144.13 -358.21 144.13 C-358.21 143.47 -358.21 142.81 -358.21 142.13 C-356.62 140.83 -354.96 139.62 -353.28 138.44 C-348.72 135.22 -344.32 131.89 -339.99 128.38 C-338.21 127.13 -338.21 127.13 -336.21 127.13 C-336.21 126.47 -336.21 125.81 -336.21 125.13 C-333.65 122.83 -332.73 122.13 -329.21 122.13 C-329.21 121.47 -329.21 120.81 -329.21 120.13 C-327.31 118.62 -327.31 118.62 -324.84 117 C-324.03 116.46 -323.21 115.92 -322.38 115.37 C-320.21 114.13 -320.21 114.13 -318.21 114.13 C-318.21 113.47 -318.21 112.81 -318.21 112.13 C-313.83 109.13 -313.83 109.13 -311.21 109.13 C-311.21 108.47 -311.21 107.81 -311.21 107.13 C-310.22 106.57 -309.23 106.01 -308.21 105.43 C-304.19 103.13 -300.26 100.71 -296.34 98.25 C-295.63 97.81 -294.93 97.37 -294.2 96.92 C-290.57 94.64 -286.99 92.32 -283.46 89.88 C-279.29 87.04 -274.86 84.87 -270.3 82.72 C-267.16 81.1 -264.24 79.29 -261.27 77.4 C-258.06 75.41 -254.74 73.64 -251.4 71.88 C-250.32 71.31 -250.32 71.31 -249.21 70.72 C-242.1 67.01 -234.86 63.59 -227.6 60.2 C-223.93 58.48 -220.32 56.67 -216.71 54.81 C-212.26 52.56 -207.78 50.82 -203.07 49.19 C-199.82 47.98 -196.72 46.55 -193.59 45.06 C-189.31 43.05 -185.12 41.31 -180.6 39.91 C-174.48 37.91 -168.49 35.46 -162.53 33.03 C-159.48 31.84 -156.36 31.02 -153.21 30.13 C-151.73 29.63 -150.25 29.13 -148.78 28.63 C-145.29 27.45 -141.82 26.51 -138.24 25.66 C-136.03 25.08 -133.88 24.37 -131.71 23.63 C-128.29 22.46 -124.89 21.5 -121.37 20.66 C-118.83 20.03 -116.3 19.33 -113.78 18.63 C-109.73 17.52 -105.68 16.53 -101.58 15.66 C-98.84 15.04 -96.12 14.33 -93.4 13.63 C-88.43 12.37 -83.47 11.45 -78.41 10.66 C-74.84 10.07 -71.31 9.35 -67.78 8.63 C-57 6.45 -46.23 4.94 -35.3 3.82 C-31.24 3.42 -31.24 3.42 -27.23 2.62 C-25.11 2.1 -23.17 1.94 -20.99 1.85 C-19.81 1.79 -19.81 1.79 -18.61 1.73 C-16.97 1.66 -15.32 1.59 -13.68 1.52 C-12.9 1.48 -12.11 1.45 -11.3 1.41 C-10.23 1.36 -10.23 1.36 -9.14 1.32 C-5.94 1 -3.28 0 0 0 Z M-90.36 275 C-93.83 275.13 -97.29 275.26 -100.76 275.38 C-103.01 275.46 -105.27 275.54 -107.52 275.63 C-108.54 275.66 -109.55 275.7 -110.59 275.73 C-111.99 275.79 -111.99 275.79 -113.42 275.85 C-114.64 275.89 -114.64 275.89 -115.87 275.94 C-118.38 276.14 -120.75 276.62 -123.21 277.13 C-125.46 277.28 -127.71 277.4 -129.96 277.5 C-142.6 278.22 -155.03 280.75 -167.21 284.13 C-168.16 284.39 -168.16 284.39 -169.13 284.65 C-178.33 287.17 -187.2 290.13 -196 293.8 C-198.39 294.79 -200.76 295.68 -203.21 296.5 C-214.34 300.64 -224.52 307.41 -234.21 314.13 C-235.32 314.82 -236.42 315.52 -237.55 316.24 C-238.43 316.86 -239.31 317.48 -240.21 318.13 C-240.21 318.79 -240.21 319.45 -240.21 320.13 C-240.79 320.4 -241.37 320.67 -241.96 320.94 C-244.25 322.15 -246.21 323.5 -248.28 325.06 C-248.95 325.57 -249.62 326.07 -250.31 326.59 C-252.08 328.02 -253.71 329.41 -255.21 331.13 C-255.21 331.79 -255.21 332.45 -255.21 333.13 C-255.87 333.13 -256.53 333.13 -257.21 333.13 C-258.88 334.46 -258.88 334.46 -260.21 336.13 C-260.21 336.79 -260.21 337.45 -260.21 338.13 C-260.87 338.13 -261.53 338.13 -262.21 338.13 C-263.89 339.74 -263.89 339.74 -265.59 341.81 C-266.21 342.54 -266.82 343.27 -267.46 344.02 C-268.04 344.72 -268.62 345.41 -269.21 346.13 C-270.02 347.08 -270.82 348.02 -271.65 349 C-273.41 350.96 -273.41 350.96 -273.21 353.13 C-273.87 353.13 -274.53 353.13 -275.21 353.13 C-276.87 355.34 -278.4 357.56 -279.9 359.88 C-280.35 360.56 -280.79 361.24 -281.25 361.94 C-289.94 375.3 -297.95 389.08 -302.4 404.46 C-303.5 408.06 -304.81 411.57 -306.15 415.1 C-309.03 423.31 -310.95 431.41 -312.34 440 C-312.67 442.02 -313.01 444.04 -313.35 446.06 C-313.49 446.94 -313.63 447.81 -313.78 448.72 C-314.21 451.13 -314.21 451.13 -314.75 453.23 C-315.5 456.3 -315.54 459.41 -315.71 462.56 C-316.1 469.6 -316.1 469.6 -316.71 472.54 C-317.21 475.1 -317.4 477.49 -317.49 480.09 C-317.53 481.06 -317.57 482.03 -317.61 483.03 C-317.64 484.08 -317.68 485.13 -317.71 486.21 C-317.75 487.34 -317.79 488.46 -317.84 489.62 C-317.92 492.03 -318.01 494.44 -318.09 496.85 C-318.21 500.34 -318.33 503.84 -318.46 507.33 C-318.75 515.26 -318.99 523.2 -319.21 531.13 C-319.24 531.93 -319.26 532.73 -319.28 533.56 C-320.22 567.07 -320.37 600.56 -320.34 634.08 C-320.34 638.78 -320.34 643.48 -320.34 648.18 C-320.37 681.84 -320.16 715.48 -319.21 749.13 C-319.19 749.89 -319.17 750.66 -319.15 751.45 C-318.91 759.74 -318.64 768.03 -318.34 776.32 C-318.21 779.91 -318.08 783.49 -317.96 787.08 C-317.88 789.4 -317.8 791.72 -317.71 794.04 C-317.68 795.09 -317.64 796.14 -317.61 797.23 C-317.57 798.2 -317.53 799.17 -317.49 800.16 C-317.46 801.01 -317.43 801.85 -317.4 802.72 C-317.2 805.25 -316.73 807.64 -316.21 810.13 C-316.06 812.38 -315.94 814.63 -315.84 816.88 C-314.94 832.63 -311.07 847.83 -306.71 862.94 C-306.51 863.65 -306.31 864.35 -306.1 865.08 C-304.77 869.6 -303.12 873.82 -301.21 878.13 C-300.55 880.13 -299.88 882.13 -299.21 884.13 C-294.49 897.51 -287.26 909.51 -279.21 921.13 C-278.52 922.23 -277.82 923.33 -277.1 924.47 C-276.48 925.34 -275.86 926.22 -275.21 927.13 C-274.55 927.13 -273.89 927.13 -273.21 927.13 C-272.94 927.7 -272.67 928.28 -272.4 928.87 C-271.19 931.17 -269.84 933.13 -268.28 935.19 C-267.77 935.86 -267.27 936.53 -266.75 937.22 C-265.32 939 -263.93 940.63 -262.21 942.13 C-261.55 942.13 -260.89 942.13 -260.21 942.13 C-260.21 942.79 -260.21 943.45 -260.21 944.13 C-258.88 945.79 -258.88 945.79 -257.21 947.13 C-256.55 947.13 -255.89 947.13 -255.21 947.13 C-255.21 947.79 -255.21 948.45 -255.21 949.13 C-253.6 950.8 -253.6 950.8 -251.53 952.5 C-250.43 953.43 -250.43 953.43 -249.32 954.37 C-248.62 954.95 -247.93 955.53 -247.21 956.13 C-246.26 956.93 -245.32 957.74 -244.34 958.56 C-242.38 960.32 -242.38 960.32 -240.21 960.13 C-240.21 960.79 -240.21 961.45 -240.21 962.13 C-236.99 964.44 -236.99 964.44 -233.21 965.13 C-233.21 965.79 -233.21 966.45 -233.21 967.13 C-230.87 968.79 -228.54 970.32 -226.09 971.81 C-225 972.48 -225 972.48 -223.89 973.16 C-214.32 978.98 -204.67 983.91 -193.93 987.23 C-191.47 988.04 -189.23 989 -186.9 990.13 C-180.63 993.02 -173.89 994.46 -167.21 996.13 C-166.21 996.4 -165.21 996.66 -164.18 996.94 C-151.45 1000.3 -138.75 1002.36 -125.6 1002.92 C-122.21 1003.13 -122.21 1003.13 -119.8 1003.62 C-117.3 1004.11 -114.98 1004.31 -112.44 1004.41 C-111.51 1004.44 -110.58 1004.48 -109.62 1004.52 C-108.61 1004.56 -107.6 1004.59 -106.56 1004.63 C-105.47 1004.67 -104.38 1004.71 -103.26 1004.75 C-100.92 1004.84 -98.59 1004.92 -96.25 1005 C-92.89 1005.12 -89.53 1005.25 -86.18 1005.38 C-44.23 1006.93 -2.25 1007.3 39.73 1007.26 C45.61 1007.25 51.49 1007.26 57.38 1007.26 C99.26 1007.3 141.15 1006.86 183.01 1005.25 C186.47 1005.12 189.93 1005 193.38 1004.88 C195.63 1004.79 197.88 1004.71 200.13 1004.63 C201.14 1004.59 202.15 1004.56 203.19 1004.52 C204.12 1004.48 205.05 1004.45 206.01 1004.41 C206.82 1004.38 207.62 1004.35 208.45 1004.32 C210.96 1004.11 213.33 1003.63 215.79 1003.13 C218.2 1002.98 220.62 1002.85 223.04 1002.75 C238.98 1001.9 254.31 998.04 269.6 993.63 C270.31 993.43 271.01 993.22 271.74 993.02 C276.26 991.69 280.48 990.03 284.79 988.13 C285.69 987.84 286.6 987.55 287.54 987.25 C292.44 985.55 297.09 983.34 301.79 981.13 C303.08 980.52 303.08 980.52 304.4 979.9 C309.53 977.43 314.22 974.64 318.88 971.36 C320.79 970.13 320.79 970.13 323.79 969.13 C323.79 968.47 323.79 967.81 323.79 967.13 C324.78 967.13 325.77 967.13 326.79 967.13 C326.79 966.47 326.79 965.81 326.79 965.13 C328.11 964.8 329.43 964.47 330.79 964.13 C330.79 963.47 330.79 962.81 330.79 962.13 C331.78 962.13 332.77 962.13 333.79 962.13 C333.79 961.47 333.79 960.81 333.79 960.13 C334.36 959.86 334.94 959.59 335.53 959.31 C337.83 958.11 339.79 956.75 341.85 955.19 C342.52 954.69 343.19 954.18 343.88 953.66 C345.66 952.23 347.29 950.84 348.79 949.13 C348.79 948.47 348.79 947.81 348.79 947.13 C349.45 947.13 350.11 947.13 350.79 947.13 C352.45 945.79 352.45 945.79 353.79 944.13 C353.79 943.47 353.79 942.81 353.79 942.13 C354.45 942.13 355.11 942.13 355.79 942.13 C357.35 940.43 358.84 938.67 360.29 936.88 C361.08 935.9 361.88 934.93 362.69 933.92 C364.37 931.68 365.67 929.68 366.79 927.13 C367.45 927.13 368.11 927.13 368.79 927.13 C368.79 926.14 368.79 925.15 368.79 924.13 C369.45 924.13 370.11 924.13 370.79 924.13 C373.1 920.91 373.1 920.91 373.79 917.13 C374.45 917.13 375.11 917.13 375.79 917.13 C376.32 916.18 376.86 915.23 377.41 914.25 C378.6 912.16 379.81 910.1 381.11 908.07 C391.46 891.75 398.13 872.76 402.79 854.13 C403.05 853.13 403.32 852.13 403.6 851.11 C406.96 838.37 409.02 825.67 409.58 812.52 C409.79 809.13 409.79 809.13 410.28 806.72 C410.78 804.18 410.97 801.8 411.07 799.21 C411.12 797.77 411.12 797.77 411.18 796.3 C411.22 795.26 411.25 794.22 411.29 793.15 C411.33 792.03 411.37 790.91 411.41 789.76 C411.5 787.36 411.58 784.97 411.66 782.57 C411.78 779.11 411.91 775.65 412.04 772.18 C413.53 730.65 413.96 689.1 413.92 647.54 C413.91 641.36 413.92 635.19 413.92 629.01 C413.95 587.4 413.42 545.81 411.91 504.22 C411.78 500.58 411.66 496.94 411.54 493.3 C411.45 490.94 411.37 488.59 411.29 486.23 C411.25 485.16 411.22 484.09 411.18 482.99 C411.12 481.52 411.12 481.52 411.07 480.02 C411.02 478.74 411.02 478.74 410.98 477.44 C410.79 475.22 410.35 473.27 409.79 471.13 C409.63 468.73 409.51 466.34 409.41 463.94 C408.57 447.97 404.7 432.63 400.29 417.31 C400.09 416.61 399.88 415.9 399.68 415.18 C398.35 410.66 396.7 406.43 394.79 402.13 C394.12 400.13 393.45 398.13 392.79 396.13 C388.06 382.74 380.83 370.74 372.79 359.13 C372.09 358.02 371.39 356.92 370.68 355.79 C370.05 354.91 369.43 354.03 368.79 353.13 C368.13 353.13 367.47 353.13 366.79 353.13 C366.54 352.59 366.29 352.05 366.04 351.5 C364.48 348.54 362.75 345.83 360.79 343.13 C360.13 343.13 359.47 343.13 358.79 343.13 C358.79 342.47 358.79 341.81 358.79 341.13 C357.45 339.46 357.45 339.46 355.79 338.13 C355.13 338.13 354.47 338.13 353.79 338.13 C353.79 337.47 353.79 336.81 353.79 336.13 C352.45 334.46 352.45 334.46 350.79 333.13 C350.13 333.13 349.47 333.13 348.79 333.13 C348.79 332.47 348.79 331.81 348.79 331.13 C346.32 328.58 343.51 326.39 340.79 324.13 C340.07 323.52 339.36 322.9 338.63 322.28 C323.49 309.66 304.21 297.01 285.04 291.69 C280.55 290.39 276.19 288.85 271.82 287.19 C263.61 284.31 255.5 282.39 246.91 281 C244.89 280.67 242.88 280.33 240.86 279.99 C239.98 279.85 239.1 279.71 238.19 279.56 C235.79 279.13 235.79 279.13 233.69 278.59 C230.61 277.84 227.5 277.8 224.35 277.63 C217.31 277.24 217.31 277.24 214.36 276.63 C211.84 276.14 209.49 275.94 206.92 275.85 C205.97 275.81 205.02 275.77 204.04 275.73 C203.01 275.7 201.98 275.66 200.91 275.63 C199.25 275.57 199.25 275.57 197.55 275.5 C195.16 275.42 192.78 275.33 190.4 275.25 C186.97 275.13 183.54 275.01 180.11 274.88 C137.73 273.34 95.34 272.96 52.94 273 C46.93 273 40.91 273 34.9 272.99 C-6.86 272.96 -48.63 273.41 -90.36 275 Z " fill="#000000" transform="translate(593.212890625,-0.126983642578125)"/>
<path d="M0 0 C4.74 0 9.49 0 14.23 -0 C22.19 -0 30.14 -0 38.1 0 C47.24 0.01 56.37 0.01 65.51 0 C73.42 -0 81.34 -0 89.25 -0 C93.95 0 98.64 0 103.34 -0 C121.56 -0.01 139.74 0.01 157.94 1.02 C162.15 1.22 166.36 1.32 170.57 1.42 C171.44 1.44 172.3 1.46 173.18 1.48 C176.4 1.55 179.62 1.62 182.83 1.69 C210.29 2.27 210.29 2.27 217.29 4.13 C219.41 4.29 221.54 4.41 223.66 4.51 C242.92 5.76 242.92 5.76 246.29 9.13 C249.84 9.93 253.4 10.62 256.97 11.32 C260.29 12.13 260.29 12.13 263.29 14.13 C264.59 14.59 265.9 15 267.23 15.38 C276.44 18.35 284.92 23.36 293.29 28.13 C293.29 28.79 293.29 29.45 293.29 30.13 C293.99 30.36 294.7 30.58 295.43 30.81 C298.9 32.41 301.37 34.65 304.1 37.26 C304.63 37.76 305.16 38.25 305.7 38.77 C306.76 39.76 307.81 40.76 308.86 41.77 C310.06 42.91 311.27 44.03 312.5 45.15 C327.56 59.29 340.91 83.19 343.79 103.7 C344.13 107.01 344.13 107.01 345.23 109.45 C348.1 116.71 348.54 124.4 348.99 132.13 C349.25 135.98 349.75 139.78 350.25 143.61 C351.9 157.68 352.06 171.86 352.41 186.01 C352.44 186.81 352.46 187.62 352.48 188.45 C354.42 264.53 354.42 340.92 352.54 417 C352.48 419.32 352.42 421.65 352.37 423.97 C352.01 439.2 351.25 454.38 349.84 469.56 C349.78 470.23 349.72 470.89 349.66 471.58 C347.91 490.31 347.91 490.31 344.29 499.13 C343.98 500.46 343.69 501.8 343.41 503.13 C341.51 512.03 339.1 520.38 334.29 528.13 C333.27 530.46 332.27 532.79 331.29 535.13 C330.3 537.14 329.31 539.14 328.29 541.13 C327.63 541.13 326.97 541.13 326.29 541.13 C326.18 541.71 326.08 542.29 325.97 542.88 C322.11 555.66 305.5 568.14 295.29 576.13 C294.58 576.72 293.86 577.31 293.13 577.91 C291.29 579.13 291.29 579.13 288.29 579.13 C288.29 579.79 288.29 580.45 288.29 581.13 C270.83 590.06 270.83 590.06 262.29 593.13 C261.51 593.42 260.73 593.71 259.93 594 C255.38 595.61 251.09 596.49 246.29 597.13 C245.53 597.44 244.76 597.75 243.98 598.07 C236.73 600.94 229.06 601.38 221.35 601.84 C217.95 602.06 214.59 602.44 211.21 602.86 C200.83 604.14 190.54 604.53 180.1 604.7 C176.88 604.76 173.66 604.82 170.43 604.89 C169.27 604.91 169.27 604.91 168.08 604.93 C163.93 605.02 159.8 605.14 155.66 605.37 C137.3 606.38 118.95 606.28 100.58 606.27 C95.84 606.27 91.09 606.27 86.35 606.27 C78.39 606.27 70.43 606.27 62.48 606.26 C53.34 606.26 44.21 606.26 35.07 606.27 C27.16 606.27 19.24 606.27 11.33 606.27 C6.63 606.27 1.94 606.27 -2.76 606.27 C-21 606.28 -39.19 606.25 -57.41 605.24 C-61.39 605.05 -65.38 604.99 -69.36 604.92 C-70.17 604.91 -70.98 604.9 -71.81 604.88 C-72.52 604.87 -73.24 604.86 -73.98 604.84 C-88.12 604.6 -102.19 604.07 -116.27 602.76 C-118.16 602.59 -118.16 602.59 -120.08 602.41 C-142.71 600.14 -142.71 600.14 -145.71 597.13 C-146.95 596.87 -148.19 596.6 -149.46 596.32 C-181.95 589.21 -209.74 568.89 -227.71 541.03 C-235.27 528.42 -240.31 515.37 -243.28 500.97 C-243.69 499 -243.69 499 -244.71 496.7 C-247.64 489.2 -248.03 481.2 -248.46 473.24 C-248.6 470.33 -248.6 470.33 -249.19 468.34 C-251.45 458.74 -250.93 448.06 -251.24 438.23 C-251.28 436.91 -251.32 435.6 -251.37 434.24 C-251.5 429.89 -251.63 425.54 -251.76 421.2 C-251.78 420.44 -251.8 419.68 -251.82 418.91 C-252.87 382.83 -253.02 346.77 -252.97 310.68 C-252.96 304.81 -252.96 298.94 -252.97 293.07 C-253.02 257.06 -252.81 221.07 -251.76 185.07 C-251.74 184.33 -251.71 183.58 -251.69 182.81 C-251.55 177.89 -251.4 172.96 -251.24 168.04 C-251.2 166.83 -251.16 165.62 -251.12 164.38 C-250.37 142.3 -250.37 142.3 -248.71 136.13 C-248.61 134.18 -248.53 132.22 -248.46 130.26 C-248.02 123.64 -246.85 117.35 -245.4 110.88 C-245.2 109.97 -245 109.06 -244.79 108.13 C-243.51 102.65 -241.82 97.55 -239.63 92.37 C-238.73 90.19 -238.01 88.01 -237.34 85.76 C-228.59 59.06 -206.4 34.74 -181.68 21.84 C-171.58 16.77 -160.4 11.21 -149.15 9.63 C-145.84 9.29 -145.84 9.29 -143.4 8.2 C-135.86 5.22 -127.83 4.82 -119.81 4.38 C-116.9 4.24 -116.9 4.24 -114.9 3.65 C-103.77 1.02 -91.17 1.87 -79.77 1.63 C-76.51 1.56 -73.25 1.49 -70 1.42 C-68.81 1.39 -68.81 1.39 -67.61 1.36 C-63.42 1.26 -59.24 1.12 -55.06 0.89 C-36.72 -0.11 -18.37 -0.01 0 0 Z M213.29 79.13 C213.29 79.79 213.29 80.45 213.29 81.13 C212.63 81.13 211.97 81.13 211.29 81.13 C204.23 92.94 201.56 102.99 203.72 116.94 C205.68 124.56 210.2 133.01 216.29 138.13 C216.95 138.13 217.61 138.13 218.29 138.13 C218.29 138.79 218.29 139.45 218.29 140.13 C223.03 143.99 227.51 146.27 233.29 148.13 C234.22 148.48 235.14 148.83 236.09 149.19 C248.19 152.77 259.44 149.36 270.16 143.59 C270.86 143.11 271.56 142.63 272.29 142.13 C272.29 141.47 272.29 140.81 272.29 140.13 C272.87 139.89 273.44 139.64 274.04 139.38 C276.62 137.95 278.35 136.35 280.29 134.13 C280.29 133.47 280.29 132.81 280.29 132.13 C280.95 132.13 281.61 132.13 282.29 132.13 C283.09 130.62 283.88 129.1 284.66 127.57 C285.11 126.72 285.55 125.88 286 125.01 C288.63 119.14 289.65 113.66 289.6 107.26 C289.6 106.56 289.59 105.85 289.59 105.13 C289.47 99.61 288.63 95.11 286.29 90.13 C285.96 89.42 285.64 88.7 285.31 87.96 C283.64 84.45 281.93 81.02 279.29 78.13 C278.63 78.13 277.97 78.13 277.29 78.13 C277.29 77.47 277.29 76.81 277.29 76.13 C276.63 76.13 275.97 76.13 275.29 76.13 C275.29 75.47 275.29 74.81 275.29 74.13 C255.91 59.02 229.87 60.48 213.29 79.13 Z M-0.71 122.13 C-2.44 122.6 -2.44 122.6 -4.21 123.07 C-10.04 124.65 -15.49 126.23 -20.8 129.14 C-23 130.29 -25.26 131.14 -27.59 132.01 C-32.09 133.77 -36.06 136.01 -40.16 138.58 C-42.73 140.14 -45.35 141.51 -48.02 142.88 C-53.74 145.96 -58.68 149.78 -63.75 153.8 C-66.07 155.63 -68.41 157.38 -70.84 159.07 C-73.08 160.68 -74.9 162.08 -76.71 164.13 C-76.71 164.79 -76.71 165.45 -76.71 166.13 C-77.35 166.4 -77.99 166.67 -78.65 166.95 C-81.04 168.02 -81.04 168.02 -81.71 171.13 C-83.04 171.8 -84.38 172.47 -85.71 173.13 C-86.04 174.12 -86.37 175.11 -86.71 176.13 C-87.37 176.13 -88.03 176.13 -88.71 176.13 C-104.85 193.17 -118.04 215.09 -125.71 237.13 C-126.23 238.51 -126.75 239.89 -127.27 241.26 C-134.99 261.85 -137.2 281.83 -137.21 303.7 C-137.21 304.68 -137.22 305.66 -137.22 306.67 C-137.25 323.15 -135.39 338.3 -130.71 354.13 C-130.4 355.29 -130.09 356.44 -129.77 357.63 C-128.19 363.46 -126.61 368.92 -123.7 374.22 C-122.56 376.43 -121.71 378.68 -120.84 381.01 C-119.07 385.51 -116.83 389.48 -114.27 393.57 C-112.68 396.19 -111.25 398.86 -109.84 401.57 C-106.67 407.43 -103.06 413.07 -98.71 418.13 C-98.05 418.13 -97.39 418.13 -96.71 418.13 C-96.31 418.97 -96.31 418.97 -95.9 419.82 C-93 425.5 -93 425.5 -88.71 430.13 C-88.05 430.13 -87.39 430.13 -86.71 430.13 C-86.44 430.77 -86.17 431.41 -85.9 432.07 C-84.82 434.47 -84.82 434.47 -81.71 435.13 C-81.04 436.47 -80.38 437.8 -79.71 439.13 C-78.72 439.46 -77.73 439.79 -76.71 440.13 C-76.71 440.79 -76.71 441.45 -76.71 442.13 C-74.54 444.18 -74.54 444.18 -71.84 446.26 C-70.93 446.98 -70.03 447.71 -69.09 448.45 C-66.92 450.33 -66.92 450.33 -64.71 450.13 C-64.71 450.79 -64.71 451.45 -64.71 452.13 C-59.15 456.78 -53.06 460.67 -46.71 464.13 C-45.1 465.11 -43.5 466.09 -41.9 467.07 C-33.47 472.12 -24.98 475.91 -15.71 479.13 C-14.33 479.65 -12.96 480.17 -11.59 480.7 C9.01 488.42 28.99 490.62 50.85 490.63 C51.83 490.64 52.82 490.64 53.83 490.65 C66.31 490.67 78.09 489.77 90.29 487.13 C91.23 486.95 92.17 486.76 93.14 486.57 C96.09 485.96 98.9 485.29 101.69 484.16 C104.31 483.13 106.87 482.43 109.6 481.76 C113.82 480.64 117.44 479.23 121.27 477.16 C123.52 476.02 125.8 475.14 128.16 474.26 C132.67 472.5 136.63 470.26 140.73 467.7 C143.34 466.1 146.01 464.68 148.73 463.26 C154.59 460.09 160.23 456.48 165.29 452.13 C165.29 451.47 165.29 450.81 165.29 450.13 C165.85 449.87 166.4 449.6 166.98 449.32 C172.66 446.43 172.66 446.43 177.29 442.13 C177.29 441.47 177.29 440.81 177.29 440.13 C177.93 439.87 178.57 439.6 179.23 439.32 C181.62 438.25 181.62 438.25 182.29 435.13 C183.62 434.47 184.96 433.8 186.29 433.13 C186.62 432.14 186.95 431.15 187.29 430.13 C187.95 430.13 188.61 430.13 189.29 430.13 C191.33 427.96 191.33 427.96 193.41 425.26 C194.14 424.35 194.86 423.45 195.61 422.52 C197.48 420.35 197.48 420.35 197.29 418.13 C197.95 418.13 198.61 418.13 199.29 418.13 C203.94 412.57 207.82 406.49 211.29 400.13 C212.27 398.53 213.24 396.92 214.23 395.32 C221.83 382.59 226.77 369.08 230.75 354.82 C231.29 353.13 231.29 353.13 232.29 352.13 C232.81 349.47 233.29 346.81 233.73 344.13 C233.97 342.65 234.22 341.18 234.47 339.7 C234.58 339.04 234.69 338.38 234.8 337.7 C235.09 336.2 235.4 334.69 235.78 333.21 C237.22 327.34 237.6 321.82 237.59 315.79 C237.59 314.82 237.6 313.85 237.6 312.86 C237.61 310.82 237.61 308.78 237.61 306.74 C237.6 303.67 237.63 300.61 237.65 297.54 C237.69 285.73 236.82 274.67 234.29 263.13 C233.96 261.47 233.62 259.8 233.29 258.13 C232.26 253.7 230.82 249.42 229.29 245.13 C228.95 244.18 228.95 244.18 228.61 243.21 C221.57 223.96 212.53 203.98 199.29 188.13 C198.63 188.13 197.97 188.13 197.29 188.13 C197.02 187.58 196.75 187.02 196.48 186.45 C193.58 180.77 193.58 180.77 189.29 176.13 C188.63 176.13 187.97 176.13 187.29 176.13 C186.89 175.18 186.89 175.18 186.48 174.2 C185.4 171.8 185.4 171.8 182.29 171.13 C181.62 169.8 180.96 168.47 180.29 167.13 C179.3 166.8 178.31 166.47 177.29 166.13 C177.29 165.47 177.29 164.81 177.29 164.13 C175.12 162.09 175.12 162.09 172.41 160.01 C171.51 159.28 170.6 158.56 169.67 157.81 C167.5 155.94 167.5 155.94 165.29 156.13 C165.29 155.47 165.29 154.81 165.29 154.13 C150.77 142.56 133.77 133.21 116.29 127.13 C114.91 126.62 113.54 126.1 112.16 125.57 C91.57 117.85 71.59 115.64 49.73 115.63 C48.74 115.63 47.76 115.63 46.75 115.62 C30.27 115.59 15.12 117.46 -0.71 122.13 Z " fill="#000000" transform="translate(589.7102966308594,336.865674495697)"/>
<path d="M0 0 C0.79 0 1.57 0 2.38 0 C18 0.06 32.14 2.03 46.43 8.59 C48.73 9.63 51.07 10.51 53.44 11.38 C57.9 13.12 61.64 15.44 65.53 18.23 C67.51 19.67 67.51 19.67 70.44 20.5 C70.44 21.16 70.44 21.82 70.44 22.5 C71.29 22.89 71.29 22.89 72.16 23.29 C74.63 24.6 76.68 26.13 78.88 27.88 C79.62 28.46 80.36 29.05 81.12 29.65 C81.89 30.26 82.65 30.87 83.44 31.5 C84.68 32.45 84.68 32.45 85.96 33.42 C95.19 41.17 101.8 52.54 108.44 62.5 C108.44 63.49 108.44 64.48 108.44 65.5 C109.1 65.5 109.76 65.5 110.44 65.5 C111.4 67.73 112.35 69.96 113.31 72.19 C113.58 72.81 113.85 73.44 114.13 74.08 C116.59 79.83 118.89 85.44 120.44 91.5 C120.81 92.9 120.81 92.9 121.18 94.33 C123.37 103.38 123.9 111.89 123.83 121.17 C123.81 123.5 123.83 125.83 123.85 128.16 C123.86 139.68 122.71 150.72 118.23 161.48 C117.38 163.56 117.38 163.56 116.71 166.05 C112.4 180.92 103.15 193.66 93.44 205.5 C92.62 206.52 91.8 207.55 90.95 208.6 C84.89 215.59 76.96 220.93 69.56 226.44 C68.62 227.15 68.62 227.15 67.65 227.87 C64.33 230.31 61.33 232.07 57.44 233.5 C56.63 234 55.82 234.49 54.99 235 C52.25 236.61 49.65 237.55 46.62 238.5 C43.22 239.59 39.87 240.7 36.56 242.06 C25.46 246.2 14.42 246.99 2.71 246.89 C0.37 246.87 -1.97 246.89 -4.31 246.91 C-13.45 246.92 -21.72 246.06 -30.56 243.5 C-31.33 243.29 -32.1 243.08 -32.89 242.87 C-41.45 240.46 -49.59 237.47 -57.56 233.5 C-57.56 232.84 -57.56 232.18 -57.56 231.5 C-58.13 231.38 -58.71 231.26 -59.3 231.13 C-61.66 230.47 -63.63 229.56 -65.81 228.44 C-66.52 228.08 -67.23 227.71 -67.95 227.34 C-68.48 227.06 -69.02 226.79 -69.56 226.5 C-69.56 225.84 -69.56 225.18 -69.56 224.5 C-70.13 224.24 -70.7 223.98 -71.29 223.71 C-73.76 222.4 -75.81 220.87 -78 219.12 C-78.74 218.54 -79.48 217.95 -80.25 217.35 C-81.01 216.74 -81.77 216.13 -82.56 215.5 C-83.39 214.87 -84.23 214.23 -85.08 213.58 C-93.46 206.55 -99.51 196.55 -105.56 187.5 C-106.06 186.78 -106.55 186.06 -107.06 185.32 C-112.33 177.39 -115.38 168.39 -118.25 159.38 C-118.45 158.74 -118.65 158.11 -118.86 157.46 C-119.47 155.48 -120.03 153.5 -120.56 151.5 C-120.75 150.8 -120.94 150.11 -121.14 149.39 C-123.1 141.1 -123 132.66 -123 124.19 C-123 123.39 -123 122.59 -123.01 121.77 C-122.99 106.05 -121.08 91.9 -114.47 77.51 C-113.43 75.21 -112.55 72.87 -111.69 70.5 C-109.94 66.03 -107.62 62.3 -104.83 58.41 C-103.39 56.42 -103.39 56.42 -102.56 53.5 C-101.9 53.5 -101.24 53.5 -100.56 53.5 C-100.3 52.93 -100.04 52.36 -99.77 51.78 C-98.46 49.3 -96.93 47.26 -95.19 45.06 C-94.6 44.32 -94.02 43.58 -93.41 42.82 C-92.8 42.05 -92.19 41.29 -91.56 40.5 C-90.94 39.67 -90.32 38.85 -89.68 38 C-87.37 35.27 -84.92 33.16 -82.12 30.94 C-80.73 29.82 -80.73 29.82 -79.32 28.68 C-78.41 27.96 -77.5 27.24 -76.56 26.5 C-75.66 25.75 -74.77 25 -73.84 24.22 C-71.56 22.5 -71.56 22.5 -69.56 22.5 C-69.56 21.84 -69.56 21.18 -69.56 20.5 C-68.85 20.11 -68.14 19.73 -67.4 19.33 C-66.44 18.81 -65.49 18.29 -64.5 17.75 C-63.49 17.2 -62.47 16.65 -61.43 16.09 C-59.28 14.9 -57.21 13.67 -55.12 12.38 C-51.15 10.07 -46.83 8.82 -42.46 7.44 C-40.15 6.69 -37.93 5.87 -35.69 4.94 C-24.01 0.58 -12.3 -0.07 0 0 Z " fill="#000000" transform="translate(639.5625,516.5)"/>
</svg>
