<?xml version="1.0" encoding="UTF-8"?>
<!-- Generator: visioncortex VTracer 0.6.3 -->
<svg version="1.1" xmlns="http://www.w3.org/2000/svg" width="1280" height="1280">
<path d="M0 0 C0.86 -0 1.72 -0.01 2.6 -0.01 C3.54 -0.01 4.48 -0 5.44 -0 C6.43 -0 7.42 -0.01 8.44 -0.01 C11.73 -0.01 15.01 -0.01 18.29 -0.01 C20.56 -0.01 22.84 -0.01 25.11 -0.01 C29.88 -0.01 34.66 -0.01 39.43 -0 C45.55 0 51.68 -0 57.8 -0.01 C62.5 -0.01 67.2 -0.01 71.9 -0.01 C74.16 -0.01 76.41 -0.01 78.67 -0.01 C81.82 -0.01 84.98 -0.01 88.13 -0 C89.54 -0.01 89.54 -0.01 90.97 -0.01 C91.83 -0.01 92.69 -0 93.57 0 C94.32 0 95.07 0 95.83 0 C97.79 0.13 97.79 0.13 100.79 1.13 C103.54 1.31 106.28 1.45 109.04 1.56 C119.99 2.09 130.68 3.41 141.42 5.7 C143.94 6.15 146.42 6.38 148.97 6.56 C156.19 7.13 165.3 7.88 171.79 11.13 C173.02 11.23 174.26 11.33 175.54 11.44 C181.06 11.98 186.18 13.63 191.48 15.21 C194.12 15.94 196.52 16.47 199.22 16.75 C203.74 17.23 207.86 18.31 212.04 20.08 C215.34 21.34 218.66 22.13 222.1 22.94 C232.49 25.46 242.78 28.46 252.74 32.38 C255.53 33.4 258.38 34.22 261.22 35.06 C265.85 36.47 270.18 38.08 274.56 40.13 C277.03 41.24 279.54 42.16 282.1 43.06 C291.35 46.37 300.17 50.26 308.92 54.72 C311.53 56 314.13 57.09 316.85 58.13 C321.49 59.91 325.74 62.19 330.05 64.66 C333.22 66.36 336.48 67.71 339.79 69.13 C342.14 70.31 344.47 71.51 346.79 72.75 C347.43 73.1 348.07 73.44 348.73 73.79 C354.07 76.68 359.27 79.76 364.45 82.92 C367.91 85.02 371.39 87.01 374.97 88.88 C381.54 92.38 387.68 96.54 393.88 100.63 C394.72 101.18 395.55 101.73 396.41 102.3 C397.16 102.79 397.9 103.29 398.67 103.8 C400.66 105.05 402.67 106.12 404.79 107.13 C404.79 107.79 404.79 108.45 404.79 109.13 C405.47 109.36 406.16 109.6 406.86 109.85 C410.39 111.39 413.45 113.43 416.6 115.63 C417.2 116.03 417.79 116.43 418.41 116.85 C419.91 117.89 421.35 119 422.79 120.13 C422.79 120.79 422.79 121.45 422.79 122.13 C423.68 122.31 423.68 122.31 424.6 122.5 C426.79 123.13 426.79 123.13 429.79 125.13 C429.79 125.79 429.79 126.45 429.79 127.13 C430.78 127.44 430.78 127.44 431.79 127.75 C435.86 129.62 439.48 132.1 442.79 135.13 C442.79 135.79 442.79 136.45 442.79 137.13 C443.53 137.4 444.27 137.66 445.04 137.94 C447.68 139.08 449.64 140.22 451.79 142.13 C451.79 142.79 451.79 143.45 451.79 144.13 C452.41 144.44 453.02 144.75 453.66 145.06 C455.04 145.75 456.41 146.44 457.79 147.13 C457.79 147.79 457.79 148.45 457.79 149.13 C458.33 149.36 458.87 149.6 459.43 149.85 C462.42 151.47 464.9 153.48 467.54 155.63 C469.01 156.82 469.01 156.82 470.52 158.03 C471.27 158.72 472.02 159.42 472.79 160.13 C472.79 160.79 472.79 161.45 472.79 162.13 C473.68 162.52 473.68 162.52 474.58 162.93 C476.87 164.17 478.26 165.43 480.04 167.31 C482.35 169.76 484.78 172 487.33 174.19 C492.21 178.43 496.79 182.95 501.36 187.52 C502.81 188.96 504.26 190.39 505.71 191.83 C506.62 192.74 507.54 193.65 508.47 194.58 C509.3 195.41 510.13 196.23 510.99 197.08 C512.79 199.13 512.79 199.13 512.79 201.13 C513.45 201.13 514.11 201.13 514.79 201.13 C516.48 202.77 516.48 202.77 518.35 204.94 C518.97 205.65 519.59 206.35 520.23 207.08 C521.79 209.13 521.79 209.13 522.79 212.13 C523.45 212.13 524.11 212.13 524.79 212.13 C526.3 213.83 527.75 215.59 529.16 217.38 C531.38 220.18 533.52 222.86 536.08 225.36 C537.79 227.13 537.79 227.13 537.79 229.13 C538.45 229.13 539.11 229.13 539.79 229.13 C542.79 232.59 542.79 232.59 542.79 235.13 C543.45 235.13 544.11 235.13 544.79 235.13 C546.08 236.72 547.3 238.38 548.47 240.06 C551.69 244.62 555.03 249.02 558.54 253.35 C559.79 255.13 559.79 255.13 559.79 257.13 C560.45 257.13 561.11 257.13 561.79 257.13 C564.08 259.69 564.79 260.61 564.79 264.13 C565.45 264.13 566.11 264.13 566.79 264.13 C568.29 266.03 568.29 266.03 569.91 268.5 C570.45 269.31 570.99 270.13 571.54 270.96 C572.79 273.13 572.79 273.13 572.79 275.13 C573.45 275.13 574.11 275.13 574.79 275.13 C577.79 279.51 577.79 279.51 577.79 282.13 C578.45 282.13 579.11 282.13 579.79 282.13 C580.33 283.1 580.87 284.08 581.43 285.08 C584.39 290.27 587.74 295.2 591.07 300.16 C591.79 301.25 591.79 301.25 592.52 302.36 C592.96 303.01 593.39 303.67 593.84 304.34 C594.79 306.13 594.79 306.13 594.79 309.13 C595.45 309.13 596.11 309.13 596.79 309.13 C597.08 309.66 597.37 310.19 597.67 310.74 C599.94 314.87 602.26 318.93 604.72 322.94 C607.44 327.43 609.79 332.03 612.09 336.74 C613.7 339.94 615.36 343.11 617.06 346.27 C623.5 358.27 629.15 370.51 634.45 383.05 C635.53 385.53 636.66 387.92 637.91 390.31 C639.92 394.2 641.34 398.25 642.8 402.37 C643.68 404.82 644.61 407.22 645.6 409.63 C650.27 421.21 654.68 432.87 657.87 444.95 C658.57 447.37 659.34 449.63 660.24 451.97 C661.87 456.23 663.1 460.54 664.29 464.94 C664.5 465.73 664.72 466.51 664.94 467.33 C665.36 468.89 665.79 470.45 666.21 472.01 C666.7 473.82 667.2 475.62 667.71 477.42 C669.03 482.18 670.23 486.92 671.25 491.75 C671.88 494.56 672.62 497.34 673.35 500.13 C674.45 504.48 675.15 508.66 675.54 513.12 C675.92 516.22 676.91 519.13 677.79 522.13 C679.18 528.57 679.99 534.95 680.51 541.51 C680.77 543.94 681.21 546.2 681.79 548.56 C682.92 553.19 683.24 557.78 683.54 562.53 C683.7 565.24 683.7 565.24 684.79 568.13 C684.92 569.58 685.01 571.04 685.07 572.51 C685.12 573.76 685.12 573.76 685.18 575.05 C685.25 576.81 685.32 578.58 685.39 580.34 C685.43 581.18 685.47 582.02 685.51 582.88 C685.54 583.65 685.57 584.41 685.6 585.2 C685.68 587.21 685.68 587.21 686.79 589.13 C686.88 590.49 686.91 591.86 686.91 593.23 C686.92 594.51 686.92 594.51 686.92 595.83 C686.92 596.77 686.92 597.71 686.92 598.69 C686.92 599.68 686.92 600.67 686.92 601.69 C686.93 604.98 686.92 608.27 686.92 611.56 C686.92 613.84 686.92 616.12 686.92 618.4 C686.92 623.18 686.92 627.97 686.92 632.75 C686.91 638.89 686.92 645.03 686.92 651.17 C686.92 655.88 686.92 660.58 686.92 665.29 C686.92 667.56 686.92 669.82 686.92 672.09 C686.93 675.25 686.92 678.41 686.92 681.57 C686.92 682.98 686.92 682.98 686.92 684.43 C686.92 685.29 686.92 686.14 686.91 687.03 C686.91 687.78 686.91 688.52 686.91 689.29 C686.79 691.13 686.79 691.13 685.79 693.13 C685.65 694.54 685.56 695.96 685.51 697.37 C685.47 698.21 685.43 699.05 685.39 699.91 C685.36 700.79 685.32 701.66 685.29 702.56 C685.22 704.29 685.15 706.02 685.07 707.75 C685.02 708.9 685.02 708.9 684.98 710.07 C684.79 712.13 684.79 712.13 683.79 715.13 C683.59 716.5 683.43 717.87 683.29 719.25 C683.16 720.44 683.16 720.44 683.04 721.64 C682.95 722.46 682.87 723.28 682.79 724.13 C682.62 725.75 682.46 727.38 682.29 729 C682.21 729.72 682.14 730.44 682.07 731.18 C681.79 733.13 681.79 733.13 680.79 736.13 C680.63 737.69 680.51 739.25 680.41 740.81 C679.99 745.84 679.22 750.74 678.29 755.69 C678.09 756.74 678.09 756.74 677.89 757.82 C676.92 762.86 676.92 762.86 675.79 765.13 C675.68 766.36 675.58 767.6 675.47 768.88 C674.93 774.25 673.38 779.19 671.83 784.35 C670.41 789.47 669.45 794.62 668.5 799.85 C667.85 802.83 666.93 805.31 665.79 808.13 C665.11 810.73 664.47 813.32 663.85 815.94 C662.68 820.77 661.43 825.45 659.55 830.06 C658.56 832.75 657.85 835.49 657.1 838.25 C653.52 851.05 648.69 863.5 643.72 875.82 C642.89 877.86 642.09 879.91 641.29 881.96 C638.56 888.97 635.6 895.69 632.15 902.38 C630.91 904.87 629.89 907.34 628.91 909.94 C626.98 914.95 624.48 919.6 621.92 924.31 C619.57 928.64 617.34 933.01 615.16 937.44 C612.75 942.32 610.14 946.97 607.28 951.6 C604.51 956.3 602.16 961.22 599.79 966.13 C599.13 966.13 598.47 966.13 597.79 966.13 C597.67 966.7 597.56 967.27 597.44 967.86 C596.72 970.35 595.71 972.22 594.38 974.44 C593.64 975.67 593.64 975.67 592.89 976.93 C592.36 977.8 591.83 978.67 591.29 979.56 C590.75 980.45 590.21 981.34 589.66 982.26 C585.8 988.6 581.74 994.75 577.43 1000.79 C575.79 1003.01 575.79 1003.01 574.79 1005.13 C574.13 1005.13 573.47 1005.13 572.79 1005.13 C572.42 1006.18 572.42 1006.18 572.04 1007.25 C570.62 1010.52 568.91 1013.27 566.79 1016.13 C566.13 1016.13 565.47 1016.13 564.79 1016.13 C564.66 1016.73 564.54 1017.32 564.41 1017.94 C563.79 1020.13 563.79 1020.13 561.79 1023.13 C561.13 1023.13 560.47 1023.13 559.79 1023.13 C559.43 1024.2 559.43 1024.2 559.06 1025.29 C557.59 1028.56 555.74 1030.84 553.41 1033.56 C550.88 1036.57 548.43 1039.49 546.35 1042.81 C545.58 1043.96 545.58 1043.96 544.79 1045.13 C544.13 1045.13 543.47 1045.13 542.79 1045.13 C542.48 1045.75 542.17 1046.36 541.85 1047 C541.16 1048.38 540.47 1049.75 539.79 1051.13 C539.13 1051.13 538.47 1051.13 537.79 1051.13 C537.56 1051.67 537.34 1052.21 537.1 1052.78 C535.37 1055.86 533.14 1058.17 530.72 1060.75 C527.37 1064.17 527.37 1064.17 524.79 1068.13 C524.13 1068.13 523.47 1068.13 522.79 1068.13 C522.52 1068.71 522.25 1069.29 521.97 1069.89 C520.77 1072.15 519.45 1073.93 517.79 1075.88 C517.27 1076.49 516.76 1077.1 516.22 1077.74 C514.79 1079.13 514.79 1079.13 512.79 1079.13 C512.57 1079.67 512.35 1080.22 512.12 1080.78 C510.35 1083.9 507.94 1086.24 505.4 1088.74 C504.6 1089.54 504.6 1089.54 503.79 1090.35 C502.66 1091.48 501.53 1092.6 500.39 1093.73 C498.68 1095.42 496.98 1097.12 495.28 1098.82 C479.49 1114.56 479.49 1114.56 474.79 1116.13 C474.79 1116.79 474.79 1117.45 474.79 1118.13 C473.09 1119.64 471.33 1121.09 469.54 1122.5 C466.73 1124.72 464.05 1126.86 461.55 1129.42 C459.79 1131.13 459.79 1131.13 457.79 1131.13 C457.79 1131.79 457.79 1132.45 457.79 1133.13 C454.33 1136.13 454.33 1136.13 451.79 1136.13 C451.79 1136.79 451.79 1137.45 451.79 1138.13 C450.19 1139.42 448.53 1140.64 446.85 1141.81 C442.3 1145.03 437.9 1148.37 433.56 1151.88 C431.79 1153.13 431.79 1153.13 429.79 1153.13 C429.79 1153.79 429.79 1154.45 429.79 1155.13 C427.23 1157.42 426.31 1158.13 422.79 1158.13 C422.79 1158.79 422.79 1159.45 422.79 1160.13 C421.02 1161.57 421.02 1161.57 418.54 1163.25 C417.17 1164.18 417.17 1164.18 415.77 1165.13 C414.78 1165.79 413.8 1166.45 412.79 1167.13 C411.33 1168.11 411.33 1168.11 409.84 1169.12 C404.08 1172.99 398.27 1176.76 392.4 1180.45 C389.1 1182.57 385.87 1184.8 382.66 1187.06 C380.79 1188.13 380.79 1188.13 377.79 1188.13 C377.79 1188.79 377.79 1189.45 377.79 1190.13 C376.14 1190.46 374.49 1190.79 372.79 1191.13 C372.79 1191.79 372.79 1192.45 372.79 1193.13 C371.66 1193.67 371.66 1193.67 370.51 1194.23 C364.62 1197.13 358.92 1200.18 353.31 1203.6 C350.52 1205.29 347.7 1206.91 344.85 1208.5 C343.95 1209 343.06 1209.51 342.13 1210.03 C339.79 1211.13 339.79 1211.13 336.79 1211.13 C336.79 1211.79 336.79 1212.45 336.79 1213.13 C336.19 1213.35 335.6 1213.57 334.99 1213.79 C330.22 1215.61 325.74 1217.63 321.29 1220.13 C317.1 1222.47 312.93 1224.36 308.45 1226.06 C305.35 1227.3 302.36 1228.7 299.35 1230.13 C294.43 1232.43 289.49 1234.41 284.37 1236.21 C281.98 1237.06 279.64 1237.98 277.29 1238.94 C265.7 1243.61 254.05 1248.01 241.96 1251.21 C239.55 1251.91 237.29 1252.67 234.95 1253.58 C230.65 1255.22 226.29 1256.48 221.85 1257.69 C221.1 1257.9 220.36 1258.11 219.59 1258.32 C214.93 1259.6 210.27 1260.71 205.53 1261.68 C203.77 1261.97 203.77 1261.97 202.79 1263.13 C201.36 1263.46 199.92 1263.74 198.47 1264 C194.51 1264.76 190.63 1265.66 186.72 1266.69 C182.37 1267.81 178.19 1268.49 173.72 1268.88 C170.94 1269.23 168.44 1270.23 165.79 1271.13 C159.1 1272.64 152.45 1273.35 145.62 1273.85 C142.37 1274.17 139.32 1274.87 136.15 1275.65 C132.27 1276.43 128.34 1276.63 124.39 1276.88 C121.68 1277.04 121.68 1277.04 118.79 1278.13 C117.33 1278.26 115.87 1278.35 114.41 1278.41 C113.15 1278.46 113.15 1278.46 111.87 1278.52 C110.1 1278.59 108.34 1278.66 106.57 1278.73 C105.73 1278.77 104.9 1278.81 104.03 1278.85 C103.27 1278.88 102.5 1278.91 101.71 1278.94 C99.7 1279.02 99.7 1279.02 97.79 1280.13 C96.42 1280.22 95.05 1280.25 93.69 1280.25 C92.4 1280.26 92.4 1280.26 91.09 1280.26 C90.14 1280.26 89.2 1280.26 88.23 1280.26 C87.24 1280.26 86.24 1280.26 85.22 1280.26 C81.93 1280.27 78.64 1280.26 75.35 1280.26 C73.07 1280.26 70.79 1280.26 68.51 1280.26 C63.73 1280.26 58.95 1280.26 54.17 1280.26 C48.03 1280.25 41.89 1280.25 35.75 1280.26 C31.04 1280.26 26.33 1280.26 21.62 1280.26 C19.36 1280.26 17.09 1280.26 14.83 1280.26 C11.67 1280.27 8.51 1280.26 5.35 1280.26 C3.93 1280.26 3.93 1280.26 2.49 1280.26 C1.63 1280.26 0.77 1280.26 -0.11 1280.25 C-0.86 1280.25 -1.61 1280.25 -2.38 1280.25 C-4.21 1280.13 -4.21 1280.13 -6.21 1279.13 C-7.62 1278.99 -9.04 1278.9 -10.46 1278.85 C-11.3 1278.81 -12.13 1278.77 -13 1278.73 C-13.87 1278.7 -14.75 1278.66 -15.65 1278.63 C-17.38 1278.56 -19.11 1278.49 -20.83 1278.41 C-21.99 1278.36 -21.99 1278.36 -23.16 1278.32 C-25.21 1278.13 -25.21 1278.13 -28.21 1277.13 C-29.58 1276.93 -30.96 1276.77 -32.34 1276.63 C-33.52 1276.5 -33.52 1276.5 -34.73 1276.38 C-35.55 1276.29 -36.37 1276.21 -37.21 1276.13 C-38.84 1275.96 -40.46 1275.8 -42.09 1275.63 C-42.81 1275.55 -43.53 1275.48 -44.27 1275.41 C-46.21 1275.13 -46.21 1275.13 -49.21 1274.13 C-50.73 1274 -52.25 1273.9 -53.78 1273.81 C-59.86 1273.32 -65.66 1272.01 -71.58 1270.59 C-75.34 1269.7 -79 1269 -82.85 1268.62 C-86.69 1268.24 -90.15 1267.41 -93.84 1266.25 C-100.17 1264.36 -106.45 1263.02 -112.94 1261.84 C-115.91 1261.19 -118.41 1260.28 -121.21 1259.13 C-123.21 1258.6 -125.21 1258.1 -127.21 1257.63 C-131.05 1256.73 -134.56 1255.59 -138.21 1254.13 C-140.08 1253.64 -141.96 1253.18 -143.84 1252.75 C-148.67 1251.57 -153.26 1250.12 -157.9 1248.36 C-161.42 1247.05 -164.96 1245.82 -168.51 1244.6 C-175.91 1242.05 -183.23 1239.41 -190.43 1236.3 C-193.49 1235.01 -196.59 1233.85 -199.71 1232.69 C-204.91 1230.71 -209.79 1228.4 -214.73 1225.85 C-219.1 1223.69 -223.56 1221.73 -228.03 1219.75 C-236.65 1215.92 -244.96 1211.7 -253.21 1207.13 C-255.13 1206.08 -257.05 1205.04 -258.96 1204 C-259.83 1203.53 -260.7 1203.05 -261.6 1202.56 C-263.4 1201.57 -265.21 1200.6 -267.02 1199.63 C-272.19 1196.87 -277.08 1193.93 -281.91 1190.62 C-284.39 1189.01 -286.92 1187.63 -289.53 1186.25 C-294.79 1183.45 -299.68 1180.23 -304.58 1176.86 C-306.75 1175.43 -308.86 1174.22 -311.21 1173.13 C-311.21 1172.47 -311.21 1171.81 -311.21 1171.13 C-312.39 1170.66 -312.39 1170.66 -313.59 1170.19 C-316.21 1169.13 -316.21 1169.13 -318.21 1168.13 C-318.21 1167.47 -318.21 1166.81 -318.21 1166.13 C-319.05 1165.72 -319.05 1165.72 -319.9 1165.31 C-324.1 1163.16 -328.06 1160.62 -332.03 1158.06 C-332.82 1157.56 -333.61 1157.05 -334.42 1156.53 C-335.01 1156.07 -335.6 1155.6 -336.21 1155.13 C-336.21 1154.47 -336.21 1153.81 -336.21 1153.13 C-336.93 1152.88 -337.65 1152.63 -338.39 1152.38 C-341.54 1150.98 -343.71 1149.29 -346.34 1147.06 C-347.3 1146.25 -348.27 1145.45 -349.26 1144.61 C-350.72 1143.38 -350.72 1143.38 -352.21 1142.13 C-353.98 1140.69 -355.75 1139.25 -357.53 1137.81 C-362.57 1133.69 -367.52 1129.46 -372.44 1125.2 C-374.79 1123.17 -377.1 1121.21 -379.62 1119.4 C-380.15 1118.98 -380.67 1118.56 -381.21 1118.13 C-381.21 1117.47 -381.21 1116.81 -381.21 1116.13 C-381.81 1115.86 -382.4 1115.6 -383.01 1115.33 C-385.29 1114.08 -386.69 1112.82 -388.46 1110.94 C-390.81 1108.46 -393.26 1106.2 -395.85 1103.98 C-400.71 1099.76 -405.24 1095.25 -409.78 1090.69 C-410.59 1089.88 -411.4 1089.07 -412.23 1088.24 C-416.56 1083.9 -420.74 1079.5 -424.72 1074.83 C-426.19 1073.09 -426.19 1073.09 -427.91 1071.53 C-429.21 1070.13 -429.21 1070.13 -429.21 1068.13 C-429.87 1068.13 -430.53 1068.13 -431.21 1068.13 C-432.73 1066.43 -434.18 1064.67 -435.59 1062.88 C-437.81 1060.07 -439.94 1057.39 -442.5 1054.89 C-444.21 1053.13 -444.21 1053.13 -444.21 1051.13 C-444.87 1051.13 -445.53 1051.13 -446.21 1051.13 C-449.21 1047.67 -449.21 1047.67 -449.21 1045.13 C-449.87 1045.13 -450.53 1045.13 -451.21 1045.13 C-452.51 1043.53 -453.72 1041.87 -454.9 1040.19 C-458.12 1035.64 -461.45 1031.24 -464.96 1026.9 C-466.21 1025.13 -466.21 1025.13 -466.21 1023.13 C-466.87 1023.13 -467.53 1023.13 -468.21 1023.13 C-470.51 1020.57 -471.21 1019.65 -471.21 1016.13 C-471.87 1016.13 -472.53 1016.13 -473.21 1016.13 C-474.72 1014.23 -474.72 1014.23 -476.34 1011.75 C-477.15 1010.53 -477.15 1010.53 -477.97 1009.29 C-479.21 1007.13 -479.21 1007.13 -479.21 1005.13 C-479.87 1005.13 -480.53 1005.13 -481.21 1005.13 C-484.21 1000.74 -484.21 1000.74 -484.21 998.13 C-484.87 998.13 -485.53 998.13 -486.21 998.13 C-486.77 997.14 -487.32 996.15 -487.89 995.14 C-490.68 990.26 -493.72 985.54 -496.77 980.82 C-497.2 980.15 -497.63 979.47 -498.07 978.77 C-498.65 977.86 -498.65 977.86 -499.24 976.94 C-500.27 975.02 -500.77 973.25 -501.21 971.13 C-501.87 971.13 -502.53 971.13 -503.21 971.13 C-503.54 969.48 -503.87 967.83 -504.21 966.13 C-504.87 966.13 -505.53 966.13 -506.21 966.13 C-506.56 965.39 -506.92 964.65 -507.28 963.89 C-509.8 958.71 -512.38 953.73 -515.59 948.94 C-518.96 943.78 -521.53 938.42 -524.08 932.82 C-526.52 927.5 -529.18 922.34 -531.96 917.19 C-534.78 911.97 -537.32 906.8 -539.4 901.22 C-540.18 899.22 -541.08 897.39 -542.09 895.5 C-544.49 890.85 -546.2 885.96 -548 881.05 C-549.33 877.43 -550.71 873.88 -552.34 870.38 C-554.35 866.01 -555.79 861.49 -557.27 856.92 C-558.04 854.65 -558.86 852.5 -559.84 850.31 C-561.29 846.96 -562.24 843.65 -563.21 840.13 C-563.93 837.92 -564.68 835.73 -565.43 833.53 C-568.13 825.21 -570.29 816.69 -572.62 808.26 C-573.12 806.45 -573.63 804.64 -574.13 802.83 C-575.45 798.08 -576.65 793.33 -577.68 788.51 C-578.31 785.69 -579.05 782.92 -579.78 780.13 C-580.88 775.78 -581.57 771.6 -581.97 767.13 C-582.35 764.03 -583.32 761.12 -584.21 758.13 C-585.66 752.04 -586.44 746.06 -586.94 739.83 C-587.2 737.29 -587.62 734.87 -588.15 732.38 C-590.41 721.67 -591.43 710.94 -591.87 700.03 C-592.01 696.84 -592.2 694.17 -593.21 691.13 C-593.3 689.72 -593.34 688.32 -593.34 686.91 C-593.34 686.06 -593.35 685.2 -593.35 684.31 C-593.35 683.38 -593.34 682.44 -593.34 681.47 C-593.34 680.48 -593.35 679.49 -593.35 678.47 C-593.35 675.19 -593.35 671.91 -593.35 668.63 C-593.35 666.35 -593.35 664.08 -593.35 661.8 C-593.35 657.03 -593.35 652.26 -593.34 647.49 C-593.34 641.36 -593.34 635.24 -593.35 629.12 C-593.35 624.42 -593.35 619.72 -593.35 615.02 C-593.35 612.76 -593.35 610.5 -593.35 608.24 C-593.35 605.09 -593.35 601.94 -593.34 598.78 C-593.34 597.84 -593.35 596.91 -593.35 595.94 C-593.35 595.08 -593.34 594.22 -593.34 593.34 C-593.34 592.59 -593.34 591.85 -593.34 591.08 C-593.21 589.13 -593.21 589.13 -592.21 586.13 C-592.03 583.37 -591.89 580.63 -591.78 577.88 C-591.25 566.93 -589.94 556.24 -587.65 545.52 C-587.17 542.89 -586.93 540.29 -586.71 537.63 C-586.19 531.1 -585.02 524.84 -583.15 518.56 C-582.42 515.88 -582.05 513.78 -581.84 511.06 C-581.34 505.8 -579.77 500.95 -578.26 495.9 C-576.84 490.78 -575.87 485.63 -574.92 480.4 C-574.28 477.42 -573.36 474.94 -572.21 472.13 C-571.53 469.55 -570.89 466.97 -570.28 464.38 C-568.49 457.06 -566.33 450.04 -563.65 443 C-562.29 439.42 -561.24 435.82 -560.21 432.13 C-558.31 425.47 -556.42 419.11 -553.14 412.99 C-552.17 411.04 -551.5 409.14 -550.84 407.06 C-547.61 396.96 -543.44 387.31 -538.58 377.89 C-537.31 375.32 -536.23 372.75 -535.21 370.06 C-533.39 365.31 -531.02 360.98 -528.48 356.57 C-527.35 354.38 -526.68 352.53 -526.21 350.13 C-525.55 350.13 -524.89 350.13 -524.21 350.13 C-524.11 349.43 -524.01 348.73 -523.91 348.01 C-523.09 344.61 -521.71 342 -520.03 338.94 C-519.39 337.79 -518.76 336.65 -518.11 335.47 C-516.02 331.79 -513.86 328.16 -511.65 324.55 C-510.22 322.13 -508.9 319.68 -507.59 317.19 C-504.67 311.77 -501.43 306.58 -498.15 301.38 C-497.64 300.57 -497.14 299.77 -496.61 298.94 C-494.3 295.3 -491.95 291.72 -489.4 288.24 C-487.11 285.3 -487.11 285.3 -486.21 282.13 C-485.55 282.13 -484.89 282.13 -484.21 282.13 C-483.75 280.95 -483.75 280.95 -483.28 279.75 C-482.21 277.13 -482.21 277.13 -481.21 275.13 C-480.55 275.13 -479.89 275.13 -479.21 275.13 C-478.97 274.43 -478.72 273.72 -478.46 273 C-477.04 269.73 -475.34 266.99 -473.21 264.13 C-472.55 264.13 -471.89 264.13 -471.21 264.13 C-471.09 263.53 -470.97 262.93 -470.84 262.31 C-470.21 260.13 -470.21 260.13 -468.21 257.13 C-467.55 257.13 -466.89 257.13 -466.21 257.13 C-465.85 256.06 -465.85 256.06 -465.49 254.97 C-464.02 251.69 -462.16 249.41 -459.84 246.69 C-457.31 243.69 -454.86 240.77 -452.78 237.44 C-452.26 236.68 -451.74 235.91 -451.21 235.13 C-450.55 235.13 -449.89 235.13 -449.21 235.13 C-448.9 234.51 -448.59 233.89 -448.28 233.25 C-447.59 231.88 -446.9 230.5 -446.21 229.13 C-445.55 229.13 -444.89 229.13 -444.21 229.13 C-443.99 228.58 -443.76 228.04 -443.53 227.48 C-441.8 224.39 -439.57 222.08 -437.15 219.5 C-433.8 216.08 -433.8 216.08 -431.21 212.13 C-430.55 212.13 -429.89 212.13 -429.21 212.13 C-428.94 211.55 -428.68 210.97 -428.4 210.38 C-427.18 208.07 -425.91 206.11 -424.21 204.13 C-423.55 204.13 -422.89 204.13 -422.21 204.13 C-421.94 203.53 -421.67 202.94 -421.39 202.32 C-420.23 200.16 -419.08 198.74 -417.36 197.01 C-416.78 196.43 -416.21 195.85 -415.62 195.25 C-414.69 194.33 -414.69 194.33 -413.74 193.39 C-413.11 192.75 -412.47 192.12 -411.82 191.46 C-410.47 190.12 -409.13 188.77 -407.78 187.44 C-405.71 185.38 -403.66 183.31 -401.6 181.24 C-400.29 179.94 -398.99 178.63 -397.68 177.33 C-397.06 176.71 -396.45 176.09 -395.81 175.45 C-391.44 171.13 -391.44 171.13 -389.21 171.13 C-389.21 170.47 -389.21 169.81 -389.21 169.13 C-383.74 164.13 -383.74 164.13 -381.21 164.13 C-381.21 163.47 -381.21 162.81 -381.21 162.13 C-379.51 160.61 -377.75 159.16 -375.96 157.75 C-373.16 155.53 -370.48 153.4 -367.98 150.84 C-366.21 149.13 -366.21 149.13 -364.21 149.13 C-364.21 148.47 -364.21 147.81 -364.21 147.13 C-360.75 144.13 -360.75 144.13 -358.21 144.13 C-358.21 143.47 -358.21 142.81 -358.21 142.13 C-356.62 140.83 -354.96 139.62 -353.28 138.44 C-348.72 135.22 -344.32 131.89 -339.99 128.38 C-338.21 127.13 -338.21 127.13 -336.21 127.13 C-336.21 126.47 -336.21 125.81 -336.21 125.13 C-333.65 122.83 -332.73 122.13 -329.21 122.13 C-329.21 121.47 -329.21 120.81 -329.21 120.13 C-327.31 118.62 -327.31 118.62 -324.84 117 C-324.03 116.46 -323.21 115.92 -322.38 115.37 C-320.21 114.13 -320.21 114.13 -318.21 114.13 C-318.21 113.47 -318.21 112.81 -318.21 112.13 C-313.83 109.13 -313.83 109.13 -311.21 109.13 C-311.21 108.47 -311.21 107.81 -311.21 107.13 C-310.22 106.57 -309.23 106.01 -308.21 105.43 C-304.19 103.13 -300.26 100.71 -296.34 98.25 C-295.63 97.81 -294.93 97.37 -294.2 96.92 C-290.57 94.64 -286.99 92.32 -283.46 89.88 C-279.29 87.04 -274.86 84.87 -270.3 82.72 C-267.16 81.1 -264.24 79.29 -261.27 77.4 C-258.06 75.41 -254.74 73.64 -251.4 71.88 C-250.32 71.31 -250.32 71.31 -249.21 70.72 C-242.1 67.01 -234.86 63.59 -227.6 60.2 C-223.93 58.48 -220.32 56.67 -216.71 54.81 C-212.26 52.56 -207.78 50.82 -203.07 49.19 C-199.82 47.98 -196.72 46.55 -193.59 45.06 C-189.31 43.05 -185.12 41.31 -180.6 39.91 C-174.48 37.91 -168.49 35.46 -162.53 33.03 C-159.48 31.84 -156.36 31.02 -153.21 30.13 C-151.01 29.4 -148.81 28.66 -146.62 27.91 C-138.3 25.21 -129.78 23.05 -121.35 20.72 C-119.54 20.22 -117.72 19.71 -115.91 19.21 C-111.16 17.89 -106.41 16.69 -101.58 15.66 C-98.84 15.04 -96.12 14.33 -93.4 13.63 C-88.43 12.37 -83.47 11.45 -78.41 10.66 C-74.84 10.07 -71.31 9.35 -67.78 8.63 C-57 6.45 -46.23 4.94 -35.3 3.82 C-31.24 3.42 -31.24 3.42 -27.23 2.62 C-25.11 2.1 -23.17 1.94 -20.99 1.85 C-19.81 1.79 -19.81 1.79 -18.61 1.73 C-16.97 1.66 -15.32 1.59 -13.68 1.52 C-12.9 1.48 -12.11 1.45 -11.3 1.41 C-10.23 1.36 -10.23 1.36 -9.14 1.32 C-5.94 1 -3.28 0 0 0 Z " fill="#000100" transform="translate(593.212890625,-0.126983642578125)"/>
<path d="M0 0 C1.33 -0.02 1.33 -0.02 2.68 -0.03 C5.67 -0.07 8.65 -0.1 11.64 -0.13 C13.77 -0.15 15.9 -0.18 18.03 -0.2 C37.52 -0.42 57.01 -0.54 76.51 -0.64 C89.62 -0.7 102.72 -0.8 115.83 -0.97 C127.26 -1.11 138.69 -1.2 150.12 -1.23 C156.17 -1.25 162.22 -1.29 168.27 -1.4 C173.97 -1.49 179.66 -1.52 185.36 -1.49 C187.45 -1.5 189.54 -1.52 191.62 -1.58 C206.99 -1.97 206.99 -1.97 211.48 1.7 C214.63 5.26 216.82 9.2 218.83 13.48 C219.91 15.72 221.27 17.71 222.74 19.73 C223.15 20.34 223.57 20.94 224 21.57 C224.61 22.45 224.61 22.45 225.23 23.35 C225.69 24.01 226.15 24.67 226.62 25.36 C229.42 29.42 232.23 33.48 235.05 37.53 C239.3 43.67 243.52 49.83 247.73 56 C252.58 63.1 257.45 70.18 262.33 77.27 C265.07 81.25 267.8 85.23 270.54 89.21 C272.87 92.6 275.19 95.98 277.53 99.36 C281.6 105.27 285.66 111.17 289.61 117.16 C293.37 122.84 297.31 128.39 301.25 133.94 C304.78 138.92 308.19 143.97 311.55 149.06 C314.19 153 316.93 156.86 319.67 160.72 C323.71 166.41 327.66 172.14 331.5 177.96 C339.41 189.85 347.58 201.55 355.79 213.23 C359.44 218.44 363 223.69 366.5 229 C369.98 234.17 373.58 239.25 377.16 244.35 C380.25 248.74 383.31 253.15 386.32 257.59 C386.91 258.45 387.49 259.31 388.09 260.2 C389.2 261.84 390.31 263.48 391.41 265.13 C393.91 268.83 396.32 272.21 399.67 275.22 C404.68 270.5 409.04 265.41 413.35 260.05 C415.55 257.36 417.83 254.78 420.17 252.22 C423.27 248.83 426.22 245.36 429.11 241.78 C432.97 237.01 437.05 232.49 441.2 227.97 C443.61 225.28 445.9 222.53 448.17 219.72 C451.22 215.94 454.38 212.3 457.67 208.72 C461.78 204.25 465.64 199.63 469.46 194.9 C472.34 191.42 475.38 188.09 478.42 184.75 C480.73 182.15 482.93 179.49 485.11 176.78 C488.97 172.01 493.04 167.49 497.2 162.98 C500.42 159.39 503.43 155.65 506.46 151.9 C509.34 148.42 512.38 145.09 515.42 141.75 C517.73 139.15 519.93 136.49 522.11 133.78 C525.97 129.01 530.04 124.49 534.2 119.98 C537.42 116.39 540.43 112.65 543.46 108.9 C546.34 105.41 549.38 102.09 552.43 98.74 C554.72 96.17 556.89 93.53 559.05 90.85 C562.31 86.81 565.7 82.96 569.23 79.16 C573.28 74.81 577.05 70.32 580.71 65.65 C583.47 62.23 586.43 59.03 589.39 55.79 C591.73 53.16 593.96 50.46 596.17 47.72 C599.78 43.26 603.56 38.99 607.42 34.75 C610.54 31.24 613.47 27.59 616.42 23.94 C619.32 20.43 622.39 17.08 625.46 13.72 C628.47 10.32 631.26 6.75 634.04 3.15 C635.67 1.22 635.67 1.22 637.67 0.22 C639.6 0.12 641.52 0.08 643.45 0.08 C644.66 0.07 645.87 0.06 647.12 0.06 C649.09 0.05 649.09 0.05 651.1 0.05 C652.46 0.05 653.82 0.05 655.18 0.04 C658.02 0.04 660.87 0.04 663.72 0.04 C667.37 0.04 671.02 0.02 674.67 0.01 C677.47 -0.01 680.28 -0.01 683.08 -0.01 C685.08 -0.01 687.08 -0.02 689.08 -0.03 C690.3 -0.03 691.51 -0.02 692.76 -0.02 C694.37 -0.02 694.37 -0.02 696.01 -0.03 C698.67 0.22 698.67 0.22 701.67 2.22 C700.91 3.03 700.15 3.84 699.36 4.68 C693.62 10.82 688.09 17.05 682.82 23.61 C680.67 26.22 678.45 28.72 676.17 31.22 C673.08 34.62 670.12 38.08 667.23 41.66 C663.37 46.43 659.3 50.96 655.14 55.47 C652.73 58.16 650.44 60.91 648.17 63.72 C644.33 68.48 640.28 72.98 636.14 77.47 C633.73 80.16 631.44 82.91 629.17 85.72 C626.12 89.51 622.96 93.14 619.67 96.72 C615.56 101.19 611.7 105.81 607.89 110.54 C605.71 113.17 603.47 115.7 601.17 118.22 C598.06 121.64 595.08 125.13 592.17 128.72 C588.56 133.19 584.78 137.45 580.92 141.69 C578.61 144.29 576.42 146.96 574.23 149.66 C570.37 154.43 566.3 158.95 562.14 163.47 C558.92 167.05 555.91 170.79 552.89 174.54 C550.01 178.03 546.96 181.35 543.92 184.69 C541.61 187.29 539.42 189.96 537.23 192.66 C533.37 197.43 529.3 201.95 525.14 206.47 C521.92 210.05 518.91 213.79 515.89 217.54 C513.71 220.17 511.47 222.7 509.17 225.22 C506.06 228.64 503.08 232.13 500.17 235.72 C496.56 240.19 492.78 244.45 488.92 248.69 C486.61 251.29 484.42 253.96 482.23 256.66 C478.37 261.43 474.3 265.95 470.14 270.47 C466.92 274.05 463.91 277.79 460.89 281.54 C458.01 285.03 454.96 288.35 451.92 291.69 C448.83 295.17 445.93 298.79 443.02 302.41 C439.72 306.36 436.19 310.09 432.64 313.81 C430.67 316.22 429.98 317.2 429.67 320.22 C430.64 322.45 430.64 322.45 432.25 324.64 C432.83 325.5 433.41 326.35 434 327.23 C434.64 328.13 435.27 329.04 435.92 329.97 C436.56 330.91 437.2 331.85 437.87 332.82 C439.79 335.63 441.73 338.42 443.67 341.22 C444.67 342.68 445.67 344.14 446.67 345.6 C448.89 348.85 451.12 352.08 453.35 355.31 C455.59 358.55 457.82 361.79 460.05 365.03 C460.5 365.69 460.95 366.34 461.41 367.02 C464.96 372.19 468.51 377.36 472.05 382.53 C472.86 383.73 472.86 383.73 473.7 384.95 C476.43 388.94 479.16 392.94 481.89 396.95 C488.13 406.09 494.43 415.18 500.79 424.23 C504.44 429.44 508 434.69 511.5 440 C514.4 444.3 517.38 448.54 520.36 452.78 C528.62 464.54 536.81 476.35 544.73 488.35 C548.46 493.97 552.35 499.45 556.25 504.95 C559.08 508.94 561.86 512.95 564.55 517.03 C568.06 522.35 571.7 527.57 575.36 532.78 C583.62 544.54 591.81 556.35 599.73 568.35 C602.95 573.21 606.3 577.97 609.67 582.72 C613.71 588.41 617.66 594.14 621.5 599.96 C629.41 611.85 637.58 623.55 645.79 635.23 C649.44 640.44 653 645.69 656.5 651 C659.4 655.3 662.38 659.54 665.36 663.78 C673.62 675.54 681.81 687.35 689.73 699.35 C693.45 704.96 697.35 710.45 701.25 715.94 C704.78 720.93 708.22 725.98 711.58 731.09 C713.23 733.56 714.91 736.01 716.6 738.44 C717.11 739.17 717.62 739.9 718.14 740.65 C719.15 742.09 720.15 743.53 721.17 744.97 C724.67 750 724.67 750 724.67 752.22 C696.46 752.34 668.26 752.43 640.05 752.48 C626.95 752.51 613.86 752.54 600.76 752.6 C589.35 752.65 577.93 752.68 566.52 752.69 C560.48 752.7 554.43 752.71 548.39 752.75 C542.7 752.78 537.01 752.79 531.33 752.79 C529.24 752.79 527.15 752.8 525.06 752.82 C522.21 752.84 519.36 752.84 516.51 752.82 C515.68 752.84 514.85 752.85 514 752.87 C509.77 752.81 508.17 752.62 504.77 749.88 C502.38 746.86 500.06 743.82 497.86 740.66 C497.42 740.04 496.99 739.43 496.54 738.79 C493.23 734.08 490.04 729.29 486.87 724.48 C484.2 720.52 481.44 716.62 478.67 712.72 C475.31 707.99 471.99 703.25 468.8 698.41 C465.19 692.94 461.44 687.58 457.67 682.22 C453.29 675.99 448.97 669.74 444.78 663.39 C437.8 652.91 430.64 642.55 423.36 632.28 C419.42 626.74 415.58 621.14 411.83 615.47 C403.61 603.11 395.1 590.95 386.62 578.77 C380.25 569.63 373.95 560.43 367.67 551.22 C366.44 549.42 365.22 547.62 363.99 545.82 C362.72 543.95 361.44 542.09 360.17 540.22 C358.28 537.44 356.38 534.66 354.49 531.89 C353.31 530.16 352.14 528.44 350.97 526.72 C344.43 517.12 337.83 507.58 331.13 498.09 C325.6 490.19 320.27 482.16 315 474.09 C314.36 473.12 313.73 472.16 313.07 471.16 C312.51 470.3 311.95 469.44 311.37 468.56 C309.65 466.2 307.79 464.23 305.67 462.22 C295.11 473.78 284.91 485.61 274.83 497.6 C270.64 502.58 266.43 507.53 262.05 512.35 C258.17 516.61 254.54 521.03 250.92 525.5 C248.03 529 244.98 532.34 241.92 535.69 C239.59 538.31 237.38 541 235.17 543.72 C231.56 548.19 227.78 552.45 223.92 556.69 C221.61 559.29 219.42 561.96 217.23 564.66 C213.37 569.43 209.3 573.95 205.14 578.47 C201.92 582.05 198.91 585.79 195.89 589.54 C193.01 593.03 189.96 596.35 186.92 599.69 C184.61 602.29 182.42 604.96 180.23 607.66 C176.37 612.43 172.3 616.95 168.14 621.47 C164.92 625.05 161.91 628.79 158.89 632.54 C156.01 636.03 152.96 639.35 149.92 642.69 C147.61 645.29 145.42 647.96 143.23 650.66 C139.37 655.43 135.3 659.95 131.14 664.47 C127.92 668.05 124.91 671.79 121.89 675.54 C119.01 679.03 115.96 682.35 112.92 685.69 C110.61 688.29 108.42 690.96 106.23 693.66 C102.37 698.43 98.3 702.96 94.14 707.47 C91.73 710.16 89.44 712.91 87.17 715.72 C84.12 719.51 80.96 723.14 77.67 726.72 C73.62 731.12 69.8 735.65 66.07 740.32 C65.28 741.28 64.49 742.24 63.67 743.22 C63.19 743.95 62.7 744.69 62.2 745.44 C59.38 749.27 57.23 751.83 52.52 753.01 C48.7 753.26 44.93 753.24 41.11 753.1 C39.71 753.08 38.31 753.07 36.91 753.06 C33.24 753.03 29.58 752.94 25.92 752.84 C22.17 752.75 18.42 752.71 14.67 752.66 C7.34 752.56 0.01 752.41 -7.33 752.22 C-7.33 747.95 -4.85 746 -2.14 742.97 C-1.6 742.36 -1.06 741.74 -0.51 741.11 C0.63 739.8 1.78 738.5 2.93 737.2 C5.7 734.06 8.43 730.89 11.17 727.72 C12.26 726.46 13.36 725.2 14.45 723.94 C17.54 720.38 20.61 716.8 23.67 713.22 C31.16 704.47 38.68 695.74 46.3 687.1 C49.67 683.25 52.97 679.33 56.28 675.42 C60.7 670.18 65.16 664.97 69.62 659.77 C71.68 657.38 73.73 654.98 75.78 652.58 C80.25 647.34 84.73 642.13 89.36 637.03 C92.39 633.7 95.28 630.29 98.11 626.78 C101.18 622.98 104.36 619.32 107.67 615.72 C111.69 611.35 115.47 606.84 119.2 602.23 C123.7 596.76 128.38 591.45 133.02 586.12 C135.61 583.14 138.17 580.15 140.73 577.16 C141.47 576.3 141.47 576.3 142.22 575.42 C143.71 573.69 145.19 571.95 146.67 570.22 C153.36 562.4 160.07 554.6 166.81 546.83 C170.47 542.62 174.11 538.39 177.73 534.16 C178.22 533.59 178.71 533.02 179.22 532.43 C181.74 529.48 184.26 526.54 186.77 523.58 C191.24 518.35 195.72 513.13 200.36 508.03 C204.21 503.79 207.82 499.39 211.42 494.94 C214.31 491.44 217.36 488.11 220.42 484.75 C222.75 482.13 224.97 479.45 227.17 476.72 C230.78 472.26 234.56 467.99 238.42 463.75 C240.75 461.13 242.97 458.45 245.17 455.72 C248.08 452.13 251.06 448.64 254.17 445.22 C258.1 440.91 261.79 436.45 265.45 431.92 C268.75 427.92 272.19 424.06 275.67 420.22 C274.44 416.09 273 412.88 270.5 409.38 C269.86 408.47 269.23 407.57 268.57 406.63 C267.88 405.67 267.19 404.71 266.48 403.72 C265.03 401.66 263.58 399.6 262.13 397.55 C261.39 396.5 260.65 395.45 259.88 394.37 C256.43 389.46 253.05 384.5 249.67 379.53 C249.04 378.61 248.41 377.68 247.76 376.73 C244.64 372.14 241.54 367.54 238.48 362.91 C234.91 357.52 231.18 352.25 227.44 346.98 C220.15 336.69 213.09 326.25 206.01 315.83 C204.75 313.98 203.49 312.13 202.23 310.28 C201.29 308.9 201.29 308.9 200.33 307.48 C196.18 301.4 191.97 295.36 187.73 289.35 C182.56 282.01 177.56 274.58 172.61 267.1 C167.35 259.15 161.95 251.35 156.32 243.66 C152.13 237.91 148.17 232.04 144.25 226.1 C140.57 220.53 136.77 215.05 132.92 209.6 C127.67 202.16 122.58 194.62 117.55 187.03 C112.49 179.4 107.35 171.83 102.03 164.37 C98.39 159.26 94.83 154.1 91.3 148.91 C86.7 142.16 82.05 135.46 77.36 128.78 C73.08 122.7 68.87 116.58 64.77 110.37 C57.63 99.65 50.28 89.07 42.86 78.53 C36.92 70.1 31.2 61.54 25.5 52.94 C21.12 46.35 16.64 39.85 12.06 33.4 C8.21 28 4.43 22.56 0.67 17.1 C0.13 16.31 -0.41 15.53 -0.97 14.73 C-3.98 10.33 -6.75 5.89 -9.33 1.22 C-7.26 -0.84 -2.84 0.02 0 0 Z " fill="#F9FBFB" transform="translate(281.32908630371094,262.77880859375)"/>
<path d="M0 0 C12.66 -0.21 25.31 -0.37 37.97 -0.47 C43.85 -0.51 49.72 -0.58 55.6 -0.68 C61.28 -0.78 66.95 -0.83 72.62 -0.85 C74.79 -0.87 76.95 -0.9 79.11 -0.95 C96.07 -1.32 96.07 -1.32 100.83 1.93 C102.65 4.24 103.82 6.32 105 9 C105.85 10.27 106.73 11.52 107.63 12.75 C108.47 13.98 109.3 15.21 110.12 16.44 C114.17 22.39 118.32 28.25 122.56 34.06 C126.93 40.06 131.13 46.12 135.19 52.32 C138.48 57.29 141.93 62.12 145.44 66.94 C150.98 74.55 156.36 82.26 161.66 90.04 C169.66 101.77 177.79 113.41 186 125 C192.35 133.95 198.66 142.93 204.86 151.98 C210.16 159.71 215.58 167.35 221 175 C227.3 183.89 233.56 192.79 239.72 201.77 C247.24 212.75 254.9 223.63 262.59 234.49 C267.27 241.09 271.88 247.74 276.44 254.44 C280.7 260.7 285.04 266.88 289.5 273 C294.53 279.9 299.39 286.9 304.2 293.97 C307.73 299.16 311.31 304.31 314.94 309.44 C315.42 310.12 315.91 310.81 316.41 311.52 C317.42 312.94 318.42 314.36 319.43 315.77 C326.89 326.33 334.29 336.93 341.56 347.62 C346.3 354.58 351.17 361.43 356.12 368.23 C360.6 374.4 364.91 380.67 369.2 386.97 C373.7 393.58 378.29 400.12 382.92 406.64 C386.21 411.29 389.48 415.96 392.75 420.62 C393.62 421.86 393.62 421.86 394.5 423.13 C399.74 430.62 404.95 438.12 410.17 445.63 C414.67 452.11 419.21 458.56 423.77 465 C427.06 469.64 430.29 474.31 433.5 479 C439.73 488.1 446.1 497.1 452.49 506.1 C458.21 514.16 463.88 522.26 469.44 530.44 C473.65 536.64 477.96 542.76 482.38 548.81 C487.9 556.4 493.21 564.12 498.48 571.89 C503.74 579.64 509.11 587.31 514.54 594.95 C521.38 604.57 528.17 614.22 534.84 623.96 C539.26 630.4 543.76 636.78 548.27 643.16 C548.72 643.8 549.18 644.44 549.64 645.09 C550.57 646.4 551.51 647.69 552.46 648.98 C556 653.79 556 653.79 556 656 C543.31 656.12 530.62 656.2 517.93 656.26 C512.03 656.29 506.14 656.32 500.25 656.38 C494.56 656.43 488.87 656.46 483.19 656.47 C481.02 656.48 478.85 656.5 476.68 656.53 C473.64 656.56 470.6 656.57 467.56 656.57 C466.67 656.59 465.77 656.6 464.84 656.62 C460.38 656.59 458.6 656.48 455.01 653.6 C454.34 652.74 453.68 651.88 453 651 C452.17 649.94 452.17 649.94 451.32 648.85 C450.83 648.14 450.34 647.43 449.84 646.7 C449.28 645.9 448.72 645.09 448.14 644.26 C447.56 643.41 446.98 642.56 446.38 641.69 C445.76 640.8 445.14 639.91 444.51 638.99 C441.69 634.93 438.89 630.85 436.1 626.76 C435.65 626.11 435.21 625.46 434.75 624.8 C433.87 623.51 432.99 622.23 432.12 620.94 C428.64 615.88 425.05 610.9 421.44 605.94 C417.06 599.92 412.83 593.83 408.73 587.61 C404.16 580.68 399.35 573.93 394.54 567.16 C387.67 557.5 380.84 547.8 374.14 538.02 C368.84 530.29 363.42 522.65 358 515 C351.65 506.05 345.34 497.07 339.14 488.02 C333.84 480.29 328.42 472.65 323 465 C316.65 456.05 310.34 447.07 304.14 438.02 C298.84 430.29 293.42 422.65 288 415 C281.65 406.04 275.34 397.07 269.14 388.01 C265.35 382.49 261.49 377.02 257.62 371.56 C253.87 366.27 250.21 360.93 246.56 355.56 C242.26 349.24 237.87 343 233.38 336.81 C226.9 327.91 220.66 318.86 214.47 309.75 C207.97 300.18 201.39 290.7 194.6 281.35 C189.96 274.97 185.46 268.51 181 262 C172.94 250.23 164.77 238.54 156.51 226.9 C150.23 218.05 144.04 209.14 137.93 200.17 C134.15 194.63 130.26 189.17 126.31 183.75 C121.97 177.79 117.79 171.76 113.73 165.61 C107.12 155.59 100.09 145.87 93.04 136.16 C88.12 129.4 83.33 122.59 78.73 115.61 C74.16 108.68 69.35 101.93 64.54 95.16 C57.67 85.5 50.84 75.8 44.14 66.02 C38.84 58.29 33.42 50.65 28 43 C21.52 33.85 15.06 24.69 8.74 15.44 C8.11 14.52 8.11 14.52 7.47 13.59 C7.07 12.99 6.67 12.4 6.25 11.79 C5.38 10.54 4.48 9.31 3.57 8.09 C0 3.3 0 3.3 0 0 Z " fill="#000100" transform="translate(361,312)"/>
</svg>
